<svg width="285" height="286" viewBox="0 0 285 286" fill="none" xmlns="http://www.w3.org/2000/svg">
<g clip-path="url(#clip0_740_6)">
<path fill-rule="evenodd" clip-rule="evenodd" d="M142.433 0.107178C152.201 0.156176 187.132 0.5267 222.816 24.9755C263.902 53.1262 288.505 101.409 284.513 153.651C278.679 229.997 212.735 289.201 134.657 284.977C56.4867 280.747 -4.73177 213.457 0.298495 133.556C4.87937 60.8003 64.1524 2.80728 137.386 0.195604C140.041 0.100797 142.274 0.108048 142.433 0.107178ZM142.43 9.50782C132.028 9.52464 100.22 10.3156 67.649 32.4383C29.3436 58.4559 6.06809 103.335 9.48055 152.104C14.5253 224.199 76.8745 280.193 150.566 275.737C223.236 271.341 279.877 208.688 275.392 134.565C271.176 64.9683 213.44 9.7131 142.865 9.50841L142.436 9.50782H142.43Z" fill="#010101"/>
<path fill-rule="evenodd" clip-rule="evenodd" d="M141.699 227.202C141.031 227.154 140.357 227.17 139.697 227.056C139.105 226.955 135.724 226.365 133.339 223.042C132.18 221.426 131.81 219.835 131.74 219.535C131.588 218.884 131.533 218.216 131.481 217.547C131.459 217.257 131.201 207.178 131.178 206.277C129.318 133.15 131.365 131.786 129.423 62.2074C129.397 61.2022 129.397 61.1996 129.572 60.2079C129.675 59.6153 130.262 56.2341 133.584 53.8518C135.2 52.6918 136.791 52.3216 137.092 52.2517C137.096 52.2504 139.082 51.9925 139.084 51.9924C139.751 52.0413 140.426 52.0246 141.085 52.1393C141.678 52.2426 145.059 52.8313 147.441 56.1521C148.601 57.7689 148.97 59.3593 149.04 59.6599C149.192 60.3104 149.245 60.9815 149.299 61.6473C149.321 61.9176 149.538 70.567 149.558 71.3427C151.135 134.513 149.092 135.917 151.357 216.988C151.47 221.085 149.053 223.645 148.633 224.084C146.567 226.273 144.134 226.839 143.689 226.943C143.686 226.944 141.699 227.202 141.699 227.202Z" fill="#010101"/>
<path fill-rule="evenodd" clip-rule="evenodd" d="M151.645 223.447C151.352 223.904 150.955 224.297 150.566 224.679C147.761 227.451 144.45 227.462 143.872 227.466C143.715 227.466 142.546 227.47 141.941 227.285C141.323 227.099 140.684 226.967 140.091 226.718C139.555 226.491 136.503 225.211 134.975 221.574C134.234 219.803 134.228 218.224 134.228 217.926C134.225 217.28 134.34 216.642 134.412 215.999C134.424 215.89 134.451 215.78 134.478 215.671C134.641 215.018 135.032 213.341 136.774 211.29C139.901 207.615 158.547 190.234 161.96 186.93C171.384 177.801 194.247 154.644 194.865 154.068C195.052 153.891 195.235 153.706 195.434 153.541C195.597 153.409 195.772 153.289 195.949 153.18C196.416 152.892 196.874 152.585 197.371 152.35C197.947 152.077 201.342 150.471 205.358 152.25C205.943 152.509 209.377 154.029 210.654 158.234C210.73 158.485 211.137 159.827 211.055 161.489C210.974 163.152 210.438 164.447 210.338 164.69C210.127 165.196 209.847 165.671 209.579 166.151C209.163 166.901 209.118 166.869 208.543 167.507C208.446 167.615 208.241 167.845 207.925 168.134C202.674 173.382 180.892 195.488 172.498 203.389C161.996 213.273 153.811 221.136 151.645 223.447ZM194.389 154.573C194.413 154.541 194.44 154.506 194.467 154.47L194.389 154.573ZM151.798 223.175L151.831 223.126L151.961 222.926L152.109 222.684L152.292 222.363C152.359 222.212 152.443 222.073 152.512 221.921C152.566 221.804 152.841 221.208 153.076 220.384C153.139 220.177 153.166 219.958 153.226 219.75C152.639 220.838 152.371 222.08 151.798 223.175Z" fill="#010101"/>
<path fill-rule="evenodd" clip-rule="evenodd" d="M74.1767 172.455C73.7158 171.975 73.2041 171.538 72.7927 171.015C72.4229 170.544 70.3129 167.859 70.7595 163.816C70.9771 161.848 71.7612 160.425 71.9094 160.156C71.9105 160.154 73.0413 158.511 73.0421 158.51C73.5223 158.049 73.9591 157.538 74.4827 157.127C74.9531 156.757 77.638 154.647 81.6805 155.094C83.6499 155.311 85.0714 156.095 85.3414 156.243C86.4982 156.881 86.4691 156.929 87.4697 157.789C97.0682 166.032 143.181 207.909 147.676 211.789L147.573 211.708L147.549 211.69L147.448 211.609C147.363 211.551 147.289 211.486 147.205 211.43C145.818 210.477 145.458 210.397 145.288 210.359C145.278 210.356 145.27 210.353 145.262 210.353C145.857 210.601 146.466 210.926 147.078 211.346C148.708 212.469 149.592 213.834 149.759 214.091C149.907 214.32 150.702 215.551 151.096 217.228C151.226 217.782 151.962 220.937 150.116 224.269C149.936 224.597 148.957 226.367 146.964 227.701C144.973 229.034 142.961 229.266 142.591 229.309C140.629 229.535 139.028 229.074 138.729 228.991C138.358 228.882 137.995 228.74 137.633 228.604C136.751 228.27 136.767 228.233 135.978 227.725C135.189 227.215 134.774 226.865 117.991 211.724C102.103 197.387 79.8778 177.316 74.1767 172.455ZM141.91 209.598C141.897 209.598 141.897 209.598 141.897 209.598H141.895C141.9 209.598 141.905 209.598 141.91 209.598ZM132.174 216.095C132.169 216.102 132.164 216.111 132.158 216.117C131.867 216.522 131.769 216.986 131.777 217.485C131.79 217.432 131.801 217.379 131.814 217.33C131.912 216.894 132.034 216.482 132.174 216.095Z" fill="#010101"/>
</g>
<defs>
<clipPath id="clip0_740_6">
<rect width="285" height="285.29" fill="white"/>
</clipPath>
</defs>
</svg>
