<?xml version="1.0" encoding="UTF-8" standalone="no"?>
<!DOCTYPE svg PUBLIC "-//W3C//DTD SVG 1.1//EN" "http://www.w3.org/Graphics/SVG/1.1/DTD/svg11.dtd">
<svg width="100%" height="100%" viewBox="0 0 610 430" version="1.1" xmlns="http://www.w3.org/2000/svg" xmlns:xlink="http://www.w3.org/1999/xlink" xml:space="preserve" xmlns:serif="http://www.serif.com/" style="fill-rule:evenodd;clip-rule:evenodd;stroke-linejoin:round;stroke-miterlimit:2;">
    <g transform="matrix(1,0,0,1,0.00796974,-0.0121613)">
        <path d="M482.68,20.993C474.071,19.277 467.426,18.799 465.25,18.644C279.93,5.406 281.18,13.508 271.37,16.482C253.03,22.039 230.13,47.718 217.55,65.896C205.97,82.619 197.92,91.579 189.11,96.427C182.61,100.009 175.7,101.305 166.7,101.95C157.36,102.618 145.83,102.573 130.31,103.435C87.41,105.819 66.31,114.941 56.65,128.388C46.93,141.925 48.59,160.092 51.84,181.091C54.52,198.432 58.19,217.763 56.59,237.97C55.27,254.505 42.28,272.46 32.96,291.735C23.23,311.852 17.38,333.304 30.93,355.885C33.306,359.844 35.95,363.364 38.847,366.495C27.607,361.524 18.301,354.001 11.418,342.522C-1.322,321.289 4.468,301.126 13.618,282.21C23.168,262.451 36.288,243.956 37.638,227.005C39.268,206.466 35.578,186.815 32.848,169.189C29.788,149.391 27.778,132.225 36.948,119.462C46.188,106.608 66.538,98.465 107.558,96.186C123.098,95.322 134.648,95.366 144.008,94.696C153.688,94.003 161.088,92.533 168.078,88.683C177.278,83.621 185.798,74.374 197.888,56.912C210.018,39.391 231.878,14.421 249.558,9.065C259.288,6.114 258.048,-1.748 441.988,11.39C445.872,11.668 464.548,12.988 482.68,20.993Z" style="fill:rgb(217,217,217);"/>
        <path d="M59.877,376.881C61.579,377.194 63.306,377.479 65.058,377.74C101.348,383.138 148.508,377.783 198.418,385.461C251.938,393.696 251.158,409.55 343.638,396.938C403.668,388.753 446.138,401.367 478.848,410.246C501.218,416.319 519.148,420.576 534.988,415.826C556.398,409.402 568.638,399.824 575.538,388.311C582.418,376.827 583.978,363.346 583.778,348.897C583.528,330.247 580.358,309.955 582.798,290.442C585.488,268.885 589.058,256.495 585.268,241.386C581.488,226.329 570.388,208.51 543.438,176.172C512.128,138.598 514.278,119.476 518.878,101.099C522.088,88.273 526.288,75.812 521.898,58.265C519.36,48.098 514.414,39.949 508.155,33.423C509.401,34.018 510.641,34.647 511.87,35.311C524.87,42.332 536.65,53.296 540.96,70.529C545.15,87.277 541,99.16 537.94,111.402C533.13,130.628 530.56,150.736 563.32,190.043C589.64,221.633 600.64,238.944 604.33,253.652C608,268.307 604.38,280.316 601.77,301.225C599.31,320.923 602.47,341.408 602.72,360.235C602.91,373.894 601.56,386.663 595.05,397.519C588.57,408.346 576.94,417.198 556.81,423.239C541.59,427.803 524.39,423.466 502.89,417.63C469.79,408.646 426.81,395.936 366.08,404.219C274.33,416.73 275.11,400.921 222.01,392.751C172.09,385.072 124.93,390.426 88.64,385.027C78.034,383.45 68.372,380.949 59.877,376.881Z" style="fill:rgb(217,217,217);"/>
        <path d="M48.806,370.123C43.246,365.842 38.411,360.496 34.4,353.806C21.66,332.573 27.45,312.41 36.6,293.494C46.15,273.735 59.27,255.24 60.62,238.289C62.25,217.75 58.56,198.099 55.83,180.473C52.77,160.675 50.76,143.509 59.93,130.746C69.17,117.892 89.52,109.749 130.54,107.47C146.08,106.606 157.63,106.65 166.99,105.98C176.67,105.287 184.07,103.817 191.06,99.967C200.26,94.905 208.78,85.658 220.87,68.196C233,50.675 254.86,25.705 272.54,20.349C282.27,17.398 281.03,9.536 464.97,22.674C468.203,22.905 481.687,23.859 496.575,28.79C506.348,35.739 514.54,45.497 517.978,59.245C522.168,75.993 518.018,87.876 514.958,100.118C510.148,119.344 507.578,139.452 540.338,178.759C566.658,210.349 577.658,227.66 581.348,242.368C585.018,257.023 581.398,269.032 578.788,289.941C576.328,309.639 579.488,330.124 579.738,348.951C579.928,362.61 578.578,375.379 572.068,386.235C565.588,397.062 553.958,405.914 533.828,411.955C518.608,416.519 501.408,412.182 479.908,406.346C446.808,397.362 403.828,384.652 343.098,392.935C251.348,405.446 252.128,389.637 199.028,381.467C149.108,373.788 101.948,379.142 65.658,373.743C59.734,372.862 54.103,371.693 48.806,370.123Z" style="fill:white;"/>
        <g transform="matrix(1,0,0,1,-1008.63,-381.584)">
            <g id="Ebene2">
                <path d="M1280,398.066C1289.81,395.092 1288.56,386.99 1473.88,400.228C1478.37,400.548 1501.88,402.244 1522.42,413.339C1536.35,420.862 1548.9,432.671 1553.51,451.133C1557.9,468.68 1553.7,481.141 1550.49,493.967C1545.89,512.344 1543.74,531.466 1575.05,569.04C1602,601.378 1613.1,619.197 1616.88,634.254C1620.67,649.363 1617.1,661.753 1614.41,683.31C1611.97,702.823 1615.14,723.115 1615.39,741.765C1615.59,756.214 1614.03,769.695 1607.15,781.179C1600.25,792.692 1588.01,802.27 1566.6,808.694C1550.76,813.444 1532.83,809.187 1510.46,803.114C1477.75,794.235 1435.28,781.621 1375.25,789.806C1282.77,802.418 1283.55,786.564 1230.03,778.329C1180.12,770.651 1132.96,776.006 1096.67,770.608C1071.83,766.913 1052.01,758.214 1039.56,737.469C1026.01,714.888 1031.86,693.436 1041.59,673.319C1050.91,654.044 1063.9,636.089 1065.22,619.554C1066.82,599.347 1063.15,580.016 1060.47,562.675C1057.22,541.676 1055.56,523.509 1065.28,509.972C1074.94,496.525 1096.04,487.403 1138.94,485.019C1154.46,484.157 1165.99,484.202 1175.33,483.534C1184.33,482.889 1191.24,481.593 1197.74,478.011C1206.55,473.163 1214.6,464.203 1226.18,447.48C1238.76,429.302 1261.66,403.623 1280,398.066ZM1281.17,401.933C1263.49,407.289 1241.63,432.259 1229.5,449.78C1217.41,467.242 1208.89,476.489 1199.69,481.551C1192.7,485.401 1185.3,486.871 1175.62,487.564C1166.26,488.234 1154.71,488.19 1139.17,489.054C1098.15,491.333 1077.8,499.476 1068.56,512.33C1059.39,525.093 1061.4,542.259 1064.46,562.057C1067.19,579.683 1070.88,599.334 1069.25,619.873C1067.9,636.824 1054.78,655.319 1045.23,675.078C1036.08,693.994 1030.29,714.157 1043.03,735.39C1054.82,755.053 1073.72,763.109 1097.27,766.611C1133.56,772.01 1180.72,766.656 1230.64,774.335C1283.74,782.505 1282.96,798.314 1374.71,785.803C1435.44,777.52 1478.42,790.23 1511.52,799.214C1533.02,805.05 1550.22,809.387 1565.44,804.823C1585.57,798.782 1597.2,789.93 1603.68,779.103C1610.19,768.247 1611.54,755.478 1611.35,741.819C1611.1,722.992 1607.94,702.507 1610.4,682.809C1613.01,661.9 1616.63,649.891 1612.96,635.236C1609.27,620.528 1598.27,603.217 1571.95,571.627C1539.19,532.32 1541.76,512.212 1546.57,492.986C1549.63,480.744 1553.78,468.861 1549.59,452.113C1545.28,434.88 1533.5,423.916 1520.5,416.895C1500.65,406.174 1477.93,404.568 1473.6,404.258C1289.66,391.12 1290.9,398.982 1281.17,401.933Z"/>
                <g transform="matrix(1,0,0,1,-22.9816,-11.2841)">
                    <path d="M1280,398.066C1289.81,395.092 1288.56,386.99 1473.88,400.228C1478.37,400.548 1501.88,402.244 1522.42,413.339C1536.35,420.862 1548.9,432.671 1553.51,451.133C1557.9,468.68 1553.7,481.141 1550.49,493.967C1545.89,512.344 1543.74,531.466 1575.05,569.04C1602,601.378 1613.1,619.197 1616.88,634.254C1620.67,649.363 1617.1,661.753 1614.41,683.31C1611.97,702.823 1615.14,723.115 1615.39,741.765C1615.59,756.214 1614.03,769.695 1607.15,781.179C1600.25,792.692 1588.01,802.27 1566.6,808.694C1550.76,813.444 1532.83,809.187 1510.46,803.114C1477.75,794.235 1435.28,781.621 1375.25,789.806C1282.77,802.418 1283.55,786.564 1230.03,778.329C1180.12,770.651 1132.96,776.006 1096.67,770.608C1071.83,766.913 1052.01,758.214 1039.56,737.469C1026.01,714.888 1031.86,693.436 1041.59,673.319C1050.91,654.044 1063.9,636.089 1065.22,619.554C1066.82,599.347 1063.15,580.016 1060.47,562.675C1057.22,541.676 1055.56,523.509 1065.28,509.972C1074.94,496.525 1096.04,487.403 1138.94,485.019C1154.46,484.157 1165.99,484.202 1175.33,483.534C1184.33,482.889 1191.24,481.593 1197.74,478.011C1206.55,473.163 1214.6,464.203 1226.18,447.48C1238.76,429.302 1261.66,403.623 1280,398.066ZM1281.17,401.933C1263.49,407.289 1241.63,432.259 1229.5,449.78C1217.41,467.242 1208.89,476.489 1199.69,481.551C1192.7,485.401 1185.3,486.871 1175.62,487.564C1166.26,488.234 1154.71,488.19 1139.17,489.054C1098.15,491.333 1077.8,499.476 1068.56,512.33C1059.39,525.093 1061.4,542.259 1064.46,562.057C1067.19,579.683 1070.88,599.334 1069.25,619.873C1067.9,636.824 1054.78,655.319 1045.23,675.078C1036.08,693.994 1030.29,714.157 1043.03,735.39C1054.82,755.053 1073.72,763.109 1097.27,766.611C1133.56,772.01 1180.72,766.656 1230.64,774.335C1283.74,782.505 1282.96,798.314 1374.71,785.803C1435.44,777.52 1478.42,790.23 1511.52,799.214C1533.02,805.05 1550.22,809.387 1565.44,804.823C1585.57,798.782 1597.2,789.93 1603.68,779.103C1610.19,768.247 1611.54,755.478 1611.35,741.819C1611.1,722.992 1607.94,702.507 1610.4,682.809C1613.01,661.9 1616.63,649.891 1612.96,635.236C1609.27,620.528 1598.27,603.217 1571.95,571.627C1539.19,532.32 1541.76,512.212 1546.57,492.986C1549.63,480.744 1553.78,468.861 1549.59,452.113C1545.28,434.88 1533.5,423.916 1520.5,416.895C1500.65,406.174 1477.93,404.568 1473.6,404.258C1289.66,391.12 1290.9,398.982 1281.17,401.933Z"/>
                </g>
            </g>
        </g>
    </g>
</svg>
