<?xml version="1.0" encoding="UTF-8" standalone="no"?>
<!DOCTYPE svg PUBLIC "-//W3C//DTD SVG 1.1//EN" "http://www.w3.org/Graphics/SVG/1.1/DTD/svg11.dtd">
<svg width="100%" height="100%" viewBox="0 0 534 529" version="1.1" xmlns="http://www.w3.org/2000/svg" xmlns:xlink="http://www.w3.org/1999/xlink" xml:space="preserve" xmlns:serif="http://www.serif.com/" style="fill-rule:evenodd;clip-rule:evenodd;stroke-linejoin:round;stroke-miterlimit:2;">
    <g transform="matrix(1,0,0,1,-0.0147513,-0.0109587)">
        <g transform="matrix(1,0,0,1,-1692.77,-280.401)">
            <g transform="matrix(1,0,0,1,1692.77,280.401)">
                <path d="M474.123,30.081C461.343,26.433 443.653,24.852 418.12,25.384C313.39,27.566 313.65,28.521 209.41,15.235C162.78,9.292 135.97,14.015 118.71,25.105C101.36,36.254 93.53,53.895 85.11,74.161C78.11,91.028 70.64,109.729 56.37,127.797C35.3,154.49 23.42,172.654 18.87,191.697C12.06,220.168 21.65,250.716 42.06,315.161C51.3,344.344 50.8,386.966 52.46,422.285C53.59,446.357 55.81,467.093 62.45,478.25C62.761,478.772 63.079,479.288 63.403,479.797C57.872,475.302 53.05,469.937 49.238,463.543C42.828,452.768 40.908,432.704 39.818,409.456C38.138,373.795 38.558,330.768 29.228,301.302C9.168,237.953 -0.572,207.984 6.118,179.997C10.568,161.401 22.288,143.731 42.868,117.662C57.388,99.266 65.028,80.245 72.158,63.072C80.238,43.624 87.568,26.564 104.218,15.866C120.958,5.109 146.988,0.84 192.218,6.605C296.758,19.928 296.488,18.973 401.528,16.785C438.778,16.009 458.818,19.592 471.278,27.976C472.275,28.647 473.221,29.349 474.123,30.081Z" style="fill:rgb(217,217,217);"/>
            </g>
            <g transform="matrix(1,0,0,1,1692.77,280.401)">
                <path d="M86.401,497.014C92.239,499.156 98.3,500.837 104.418,502.139C139.148,509.532 175.658,504.745 182.518,504.036C233.748,498.736 259.168,502.235 284.658,506.733C310.388,511.274 336.188,516.814 388.198,515.481C396.098,515.278 405.268,515.166 423.448,495.943C440.988,477.401 467.298,440.555 509.958,367.09C514.538,359.202 525.368,341.028 505.098,253.176C496.408,215.515 499.268,177.919 501.278,143.178C503.318,107.896 504.438,75.52 492.258,48.866C490.936,45.968 489.57,43.248 488.093,40.705C496.143,46.172 500.924,53.671 505.27,63.184C517.19,89.293 515.92,121.023 513.93,155.584C511.89,190.686 509.06,228.671 517.84,266.724C537.6,352.33 527.61,370.014 523.14,377.7C480.74,450.723 454.63,487.375 437.2,505.806C420.41,523.556 412.07,523.893 404.77,524.08C353.17,525.403 327.57,519.898 302.04,515.393C276.27,510.845 250.57,507.298 198.79,512.655C192.04,513.353 156.11,518.099 121.94,510.826C109.329,508.142 96.942,503.826 86.401,497.014Z" style="fill:rgb(217,217,217);"/>
            </g>
            <g transform="matrix(1,0,0,1,1692.77,280.401)">
                <path d="M74.274,487.105C71.137,483.847 68.327,480.22 65.92,476.182C59.51,465.407 57.59,445.343 56.5,422.095C54.82,386.434 55.24,343.407 45.91,313.941C25.85,250.592 16.11,220.623 22.8,192.636C27.25,174.04 38.97,156.37 59.55,130.301C74.07,111.905 81.71,92.884 88.84,75.711C96.92,56.263 104.25,39.203 120.9,28.505C137.64,17.748 163.67,13.479 208.9,19.244C313.44,32.567 313.17,31.612 418.21,29.424C448.77,28.787 467.747,31.085 480.458,36.56C483.626,40.598 486.174,45.261 488.588,50.545C500.508,76.654 499.238,108.384 497.248,142.945C495.208,178.047 492.378,216.032 501.158,254.085C520.918,339.691 510.928,357.375 506.458,365.061C464.058,438.084 437.948,474.736 420.518,493.167C403.728,510.917 395.388,511.254 388.088,511.441C336.488,512.764 310.888,507.259 285.358,502.754C259.588,498.206 233.888,494.659 182.108,500.016C175.358,500.714 139.428,505.46 105.258,498.187C94.422,495.881 83.751,492.369 74.274,487.105Z" style="fill:white;"/>
            </g>
            <g id="Ebene3">
                <path d="M2201.71,341.906C2213.89,368.56 2212.77,400.936 2210.73,436.218C2208.72,470.959 2205.86,508.555 2214.55,546.216C2234.82,634.068 2223.99,652.242 2219.41,660.13C2176.75,733.595 2150.44,770.441 2132.9,788.983C2114.72,808.206 2105.55,808.318 2097.65,808.521C2045.64,809.854 2019.84,804.314 1994.11,799.773C1968.62,795.275 1943.2,791.776 1891.97,797.076C1885.11,797.785 1848.6,802.572 1813.87,795.179C1790.35,790.174 1767.69,779.571 1755.22,758.651C1748.58,747.494 1746.36,726.758 1745.23,702.686C1743.57,667.367 1744.07,624.745 1734.83,595.562C1714.42,531.117 1704.83,500.569 1711.64,472.098C1716.19,453.055 1728.07,434.891 1749.14,408.198C1763.41,390.13 1770.88,371.429 1777.88,354.562C1786.3,334.296 1794.13,316.655 1811.48,305.506C1828.74,294.416 1855.55,289.693 1902.18,295.636C2006.42,308.922 2006.16,307.967 2110.89,305.785C2149.43,304.982 2170.1,308.992 2182.99,317.663C2191.75,323.559 2197.01,331.604 2201.71,341.906ZM2198.04,343.585C2193.67,334.02 2188.86,326.49 2180.73,321.016C2168.27,312.632 2148.23,309.049 2110.98,309.825C2005.94,312.013 2006.21,312.968 1901.67,299.645C1856.44,293.88 1830.41,298.149 1813.67,308.906C1797.02,319.604 1789.69,336.664 1781.61,356.112C1774.48,373.285 1766.84,392.306 1752.32,410.702C1731.74,436.771 1720.02,454.441 1715.57,473.037C1708.88,501.024 1718.62,530.993 1738.68,594.342C1748.01,623.808 1747.59,666.835 1749.27,702.496C1750.36,725.744 1752.28,745.808 1758.69,756.583C1770.58,776.526 1792.29,786.455 1814.71,791.227C1848.88,798.5 1884.81,793.754 1891.56,793.056C1943.34,787.699 1969.04,791.246 1994.81,795.794C2020.34,800.299 2045.94,805.804 2097.54,804.481C2104.84,804.294 2113.18,803.957 2129.97,786.207C2147.4,767.776 2173.51,731.124 2215.91,658.101C2220.38,650.415 2230.37,632.731 2210.61,547.125C2201.83,509.072 2204.66,471.087 2206.7,435.985C2208.69,401.424 2209.96,369.694 2198.04,343.585Z"/>
                <g transform="matrix(1,0,0,1,-16.6816,-12.6387)">
                    <path d="M2201.71,341.906C2213.89,368.56 2212.77,400.936 2210.73,436.218C2208.72,470.959 2205.86,508.555 2214.55,546.216C2234.82,634.068 2223.99,652.242 2219.41,660.13C2176.75,733.595 2150.44,770.441 2132.9,788.983C2114.72,808.206 2105.55,808.318 2097.65,808.521C2045.64,809.854 2019.84,804.314 1994.11,799.773C1968.62,795.275 1943.2,791.776 1891.97,797.076C1885.11,797.785 1848.6,802.572 1813.87,795.179C1790.35,790.174 1767.69,779.571 1755.22,758.651C1748.58,747.494 1746.36,726.758 1745.23,702.686C1743.57,667.367 1744.07,624.745 1734.83,595.562C1714.42,531.117 1704.83,500.569 1711.64,472.098C1716.19,453.055 1728.07,434.891 1749.14,408.198C1763.41,390.13 1770.88,371.429 1777.88,354.562C1786.3,334.296 1794.13,316.655 1811.48,305.506C1828.74,294.416 1855.55,289.693 1902.18,295.636C2006.42,308.922 2006.16,307.967 2110.89,305.785C2149.43,304.982 2170.1,308.992 2182.99,317.663C2191.75,323.559 2197.01,331.604 2201.71,341.906ZM2198.04,343.585C2193.67,334.02 2188.86,326.49 2180.73,321.016C2168.27,312.632 2148.23,309.049 2110.98,309.825C2005.94,312.013 2006.21,312.968 1901.67,299.645C1856.44,293.88 1830.41,298.149 1813.67,308.906C1797.02,319.604 1789.69,336.664 1781.61,356.112C1774.48,373.285 1766.84,392.306 1752.32,410.702C1731.74,436.771 1720.02,454.441 1715.57,473.037C1708.88,501.024 1718.62,530.993 1738.68,594.342C1748.01,623.808 1747.59,666.835 1749.27,702.496C1750.36,725.744 1752.28,745.808 1758.69,756.583C1770.58,776.526 1792.29,786.455 1814.71,791.227C1848.88,798.5 1884.81,793.754 1891.56,793.056C1943.34,787.699 1969.04,791.246 1994.81,795.794C2020.34,800.299 2045.94,805.804 2097.54,804.481C2104.84,804.294 2113.18,803.957 2129.97,786.207C2147.4,767.776 2173.51,731.124 2215.91,658.101C2220.38,650.415 2230.37,632.731 2210.61,547.125C2201.83,509.072 2204.66,471.087 2206.7,435.985C2208.69,401.424 2209.96,369.694 2198.04,343.585Z"/>
                </g>
            </g>
        </g>
    </g>
</svg>
