<?xml version="1.0" encoding="UTF-8" standalone="no"?>
<!DOCTYPE svg PUBLIC "-//W3C//DTD SVG 1.1//EN" "http://www.w3.org/Graphics/SVG/1.1/DTD/svg11.dtd">
<svg width="100%" height="100%" viewBox="0 0 610 430" version="1.1" xmlns="http://www.w3.org/2000/svg" xmlns:xlink="http://www.w3.org/1999/xlink" xml:space="preserve" xmlns:serif="http://www.serif.com/" style="fill-rule:evenodd;clip-rule:evenodd;stroke-linejoin:round;stroke-miterlimit:2;">
    <g transform="matrix(1,0,0,1,-1008.63,-381.584)">
        <g id="Ebene1">
        </g>
        <g id="Ebene3">
        </g>
        <g id="Ebene4">
        </g>
        <g id="Ebene2">
            <path d="M1280,398.066C1289.81,395.092 1288.56,386.99 1473.88,400.228C1478.37,400.548 1501.88,402.244 1522.42,413.339C1536.35,420.862 1548.9,432.671 1553.51,451.133C1557.9,468.68 1553.7,481.141 1550.49,493.967C1545.89,512.344 1543.74,531.466 1575.05,569.04C1602,601.378 1613.1,619.197 1616.88,634.254C1620.67,649.363 1617.1,661.753 1614.41,683.31C1611.97,702.823 1615.14,723.115 1615.39,741.765C1615.59,756.214 1614.03,769.695 1607.15,781.179C1600.25,792.692 1588.01,802.27 1566.6,808.694C1550.76,813.444 1532.83,809.187 1510.46,803.114C1477.75,794.235 1435.28,781.621 1375.25,789.806C1282.77,802.418 1283.55,786.564 1230.03,778.329C1180.12,770.651 1132.96,776.006 1096.67,770.608C1071.83,766.913 1052.01,758.214 1039.56,737.469C1026.01,714.888 1031.86,693.436 1041.59,673.319C1050.91,654.044 1063.9,636.089 1065.22,619.554C1066.82,599.347 1063.15,580.016 1060.47,562.675C1057.22,541.676 1055.56,523.509 1065.28,509.972C1074.94,496.525 1096.04,487.403 1138.94,485.019C1154.46,484.157 1165.99,484.202 1175.33,483.534C1184.33,482.889 1191.24,481.593 1197.74,478.011C1206.55,473.163 1214.6,464.203 1226.18,447.48C1238.76,429.302 1261.66,403.623 1280,398.066ZM1281.17,401.933C1263.49,407.289 1241.63,432.259 1229.5,449.78C1217.41,467.242 1208.89,476.489 1199.69,481.551C1192.7,485.401 1185.3,486.871 1175.62,487.564C1166.26,488.234 1154.71,488.19 1139.17,489.054C1098.15,491.333 1077.8,499.476 1068.56,512.33C1059.39,525.093 1061.4,542.259 1064.46,562.057C1067.19,579.683 1070.88,599.334 1069.25,619.873C1067.9,636.824 1054.78,655.319 1045.23,675.078C1036.08,693.994 1030.29,714.157 1043.03,735.39C1054.82,755.053 1073.72,763.109 1097.27,766.611C1133.56,772.01 1180.72,766.656 1230.64,774.335C1283.74,782.505 1282.96,798.314 1374.71,785.803C1435.44,777.52 1478.42,790.23 1511.52,799.214C1533.02,805.05 1550.22,809.387 1565.44,804.823C1585.57,798.782 1597.2,789.93 1603.68,779.103C1610.19,768.247 1611.54,755.478 1611.35,741.819C1611.1,722.992 1607.94,702.507 1610.4,682.809C1613.01,661.9 1616.63,649.891 1612.96,635.236C1609.27,620.528 1598.27,603.217 1571.95,571.627C1539.19,532.32 1541.76,512.212 1546.57,492.986C1549.63,480.744 1553.78,468.861 1549.59,452.113C1545.28,434.88 1533.5,423.916 1520.5,416.895C1500.65,406.174 1477.93,404.568 1473.6,404.258C1289.66,391.12 1290.9,398.982 1281.17,401.933Z"/>
            <g transform="matrix(1,0,0,1,-22.9816,-11.2841)">
                <path d="M1280,398.066C1289.81,395.092 1288.56,386.99 1473.88,400.228C1478.37,400.548 1501.88,402.244 1522.42,413.339C1536.35,420.862 1548.9,432.671 1553.51,451.133C1557.9,468.68 1553.7,481.141 1550.49,493.967C1545.89,512.344 1543.74,531.466 1575.05,569.04C1602,601.378 1613.1,619.197 1616.88,634.254C1620.67,649.363 1617.1,661.753 1614.41,683.31C1611.97,702.823 1615.14,723.115 1615.39,741.765C1615.59,756.214 1614.03,769.695 1607.15,781.179C1600.25,792.692 1588.01,802.27 1566.6,808.694C1550.76,813.444 1532.83,809.187 1510.46,803.114C1477.75,794.235 1435.28,781.621 1375.25,789.806C1282.77,802.418 1283.55,786.564 1230.03,778.329C1180.12,770.651 1132.96,776.006 1096.67,770.608C1071.83,766.913 1052.01,758.214 1039.56,737.469C1026.01,714.888 1031.86,693.436 1041.59,673.319C1050.91,654.044 1063.9,636.089 1065.22,619.554C1066.82,599.347 1063.15,580.016 1060.47,562.675C1057.22,541.676 1055.56,523.509 1065.28,509.972C1074.94,496.525 1096.04,487.403 1138.94,485.019C1154.46,484.157 1165.99,484.202 1175.33,483.534C1184.33,482.889 1191.24,481.593 1197.74,478.011C1206.55,473.163 1214.6,464.203 1226.18,447.48C1238.76,429.302 1261.66,403.623 1280,398.066ZM1281.17,401.933C1263.49,407.289 1241.63,432.259 1229.5,449.78C1217.41,467.242 1208.89,476.489 1199.69,481.551C1192.7,485.401 1185.3,486.871 1175.62,487.564C1166.26,488.234 1154.71,488.19 1139.17,489.054C1098.15,491.333 1077.8,499.476 1068.56,512.33C1059.39,525.093 1061.4,542.259 1064.46,562.057C1067.19,579.683 1070.88,599.334 1069.25,619.873C1067.9,636.824 1054.78,655.319 1045.23,675.078C1036.08,693.994 1030.29,714.157 1043.03,735.39C1054.82,755.053 1073.72,763.109 1097.27,766.611C1133.56,772.01 1180.72,766.656 1230.64,774.335C1283.74,782.505 1282.96,798.314 1374.71,785.803C1435.44,777.52 1478.42,790.23 1511.52,799.214C1533.02,805.05 1550.22,809.387 1565.44,804.823C1585.57,798.782 1597.2,789.93 1603.68,779.103C1610.19,768.247 1611.54,755.478 1611.35,741.819C1611.1,722.992 1607.94,702.507 1610.4,682.809C1613.01,661.9 1616.63,649.891 1612.96,635.236C1609.27,620.528 1598.27,603.217 1571.95,571.627C1539.19,532.32 1541.76,512.212 1546.57,492.986C1549.63,480.744 1553.78,468.861 1549.59,452.113C1545.28,434.88 1533.5,423.916 1520.5,416.895C1500.65,406.174 1477.93,404.568 1473.6,404.258C1289.66,391.12 1290.9,398.982 1281.17,401.933Z"/>
            </g>
        </g>
    </g>
</svg>
