<?xml version="1.0" encoding="UTF-8" standalone="no"?>
<!DOCTYPE svg PUBLIC "-//W3C//DTD SVG 1.1//EN" "http://www.w3.org/Graphics/SVG/1.1/DTD/svg11.dtd">
<svg width="100%" height="100%" viewBox="0 0 651 559" version="1.1" xmlns="http://www.w3.org/2000/svg" xmlns:xlink="http://www.w3.org/1999/xlink" xml:space="preserve" xmlns:serif="http://www.serif.com/" style="fill-rule:evenodd;clip-rule:evenodd;stroke-linejoin:round;stroke-miterlimit:2;">
    <g transform="matrix(1,0,0,1,0.000496237,-0.00417674)">
        <path d="M593.874,475.803C598.683,470.223 604.226,464.852 610.857,459.959C613.853,457.748 616.656,455.515 619.274,453.263C613.939,459.493 607.308,465.604 599.23,471.565C597.364,472.943 595.581,474.358 593.874,475.803Z" style="fill:rgb(217,217,217);"/>
        <path d="M89.058,71.958C87.799,78.142 86.921,84.351 85.247,89.299C84.495,91.528 83.596,93.486 82.365,94.998C83.007,91.629 83.627,88.115 84.42,84.673C85.473,80.118 86.83,75.673 89.058,71.958Z" style="fill:rgb(217,217,217);"/>
        <path d="M75.876,104.572C74.756,107.762 73.298,110.358 70.94,111.815C68.101,113.562 65.578,115.233 63.342,116.848C65.518,112.883 69.508,109.007 75.876,104.572Z" style="fill:rgb(217,217,217);"/>
        <path d="M9.437,346.549C9.191,348.944 9.156,351.438 9.357,354.049C11.793,385.729 34.527,397.619 62.007,409.759C88.417,421.429 119.247,433.439 138.987,465.619C148.787,481.599 154.927,491.459 163.477,499.079C176.267,510.459 194.517,516.829 239.017,530.819C270.687,540.769 293.607,536.569 319.537,530.869C357.697,522.489 402.497,510.919 492.867,538.429C516.747,545.699 532.387,544.669 543.997,538.829C545.964,537.84 547.816,536.71 549.575,535.455C544.857,541.61 539.625,546.718 532.96,550.075C522.03,555.565 507.3,556.265 484.82,549.415C393.38,521.585 348.05,533.295 309.44,541.785C284.19,547.325 261.86,551.515 231,541.815C187.41,528.115 169.46,522.055 156.94,510.915C148.63,503.515 142.73,493.885 133.21,478.365C112.96,445.375 81.49,432.885 54.41,420.925C28.4,409.435 6.47,398.575 4.16,368.595C3.508,360.127 5.623,353.029 9.437,346.549Z" style="fill:rgb(217,217,217);"/>
        <path d="M155.818,36.712C146.985,46.101 141.934,51.159 135.81,53.992C129.11,57.087 121.18,57.507 105.79,58.258C102.316,58.427 99.326,59.062 96.741,60.075C99.848,53.172 105.069,47.933 115.217,47.438C131.377,46.649 139.697,46.055 146.727,42.803C149.816,41.376 152.665,39.433 155.818,36.712Z" style="fill:rgb(217,217,217);"/>
        <path d="M57.311,127.299C57.508,129.611 57.995,132.048 58.717,134.669C60.897,142.569 65.217,152.279 69.627,165.709C82.577,205.219 82.127,232.839 75.147,253.639C74.247,256.318 73.238,258.882 72.138,261.344C76.869,241.026 75.89,214.833 64.24,179.305C59.86,165.955 55.55,156.305 53.39,148.455C52.05,143.605 51.54,139.495 52.55,135.615C53.286,132.771 54.809,130.072 57.311,127.299Z" style="fill:rgb(217,217,217);"/>
        <path d="M640.065,420.915C644.789,397.461 637.011,373.293 623.25,350.005C599,308.935 556.16,270.545 532.79,243.625C498.47,204.115 497.43,172.865 496.76,148.425C496.34,133.105 495.93,120.365 488.38,109.825C483.32,102.755 475.05,96.62 461.27,91.438C461.17,91.4 461.07,91.369 460.96,91.348C424.82,84.12 425.91,84.437 389.43,85.23C314.61,86.857 268.51,45.377 230.92,25.512C215.31,17.262 201.1,12.701 187,15.875C179.978,17.456 172.961,20.95 165.811,26.922C167.281,25.378 168.852,23.709 170.547,21.902C179.617,12.22 188.337,6.938 197.107,4.961C210.337,1.984 223.617,6.491 238.257,14.228C276.287,34.33 323.037,76.06 398.747,74.414C434.717,73.632 433.697,73.316 469.227,80.422C481.927,85.22 489.647,90.789 494.327,97.329C501.417,107.239 501.547,119.269 501.947,133.679C502.637,158.779 503.737,190.849 538.967,231.419C562.217,258.199 604.867,296.349 628.997,337.199C643.207,361.259 650.997,386.239 644.087,410.349C643.073,413.894 641.741,417.418 640.065,420.915Z" style="fill:rgb(217,217,217);"/>
        <path d="M64.901,281.425C70.578,273.818 75.531,265.17 78.977,254.919C86.157,233.529 86.797,205.099 73.467,164.449C69.087,151.099 64.777,141.449 62.617,133.599C61.585,129.865 61.046,126.57 61.313,123.481C64.348,120.924 68.22,118.233 73.06,115.255C76.25,113.285 78.37,109.835 79.85,105.455C80.307,104.104 80.707,102.662 81.072,101.153C81.47,100.904 81.875,100.653 82.287,100.399C85.477,98.429 87.597,94.979 89.077,90.599C91.067,84.72 91.967,77.107 93.647,69.817C93.96,68.462 94.3,67.116 94.682,65.796C97.563,63.799 101.236,62.526 105.99,62.294C122.15,61.505 130.47,60.911 137.5,57.659C144.54,54.407 150.33,48.478 161.32,36.758C170.39,27.076 179.11,21.794 187.88,19.817C201.11,16.84 214.39,21.347 229.03,29.084C267.06,49.186 313.81,90.916 389.52,89.27C425.49,88.488 424.47,88.172 460,95.278C472.7,100.076 480.42,105.645 485.1,112.185C492.19,122.095 492.32,134.125 492.72,148.535C493.41,173.635 494.51,205.705 529.74,246.275C552.99,273.055 595.64,311.205 619.77,352.055C633.98,376.115 641.77,401.095 634.86,425.205C633.896,428.577 632.643,431.929 631.082,435.257C625.354,442.579 617.893,449.746 608.457,456.709C589.474,470.728 579.125,488.514 569.632,504.139C567.356,507.609 565.225,511.063 563.166,514.446C557.26,523.335 550.966,530.797 542.187,535.219C531.257,540.709 516.527,541.409 494.047,534.559C402.607,506.729 357.277,518.439 318.667,526.929C293.417,532.469 271.087,536.659 240.227,526.959C196.637,513.259 178.687,507.199 166.167,496.059C157.857,488.659 151.957,479.029 142.437,463.509C122.187,430.519 90.717,418.029 63.637,406.069C37.627,394.579 15.697,383.719 13.387,353.739C12.94,347.932 13.793,342.77 15.604,338.01C21.214,331.381 28.264,325.09 35.49,318.225C46.18,308.076 57.241,296.715 64.901,281.425Z" style="fill:white;"/>
        <g transform="matrix(1,0,0,1,-996.48,-899.645)">
            <g id="Ebene4">
                <path d="M1457.75,991.083C1471.53,996.265 1479.8,1002.4 1484.86,1009.47C1492.41,1020.01 1492.82,1032.75 1493.24,1048.07C1493.91,1072.51 1494.95,1103.76 1529.27,1143.27C1552.64,1170.19 1595.48,1208.58 1619.73,1249.65C1634.55,1274.73 1642.43,1300.83 1635.23,1325.96C1630.42,1342.72 1618.91,1359.11 1598.11,1374.46C1578.16,1389.18 1568.06,1408.23 1558.18,1424.27C1550.47,1436.79 1542.84,1447.5 1531.25,1453.33C1519.64,1459.17 1504,1460.2 1480.12,1452.93C1389.75,1425.42 1344.95,1436.99 1306.79,1445.37C1280.86,1451.07 1257.94,1455.27 1226.27,1445.32C1181.77,1431.33 1163.52,1424.96 1150.73,1413.58C1142.18,1405.96 1136.04,1396.1 1126.24,1380.12C1106.5,1347.94 1075.67,1335.93 1049.26,1324.26C1021.78,1312.12 999.046,1300.23 996.61,1268.55C995.714,1256.91 999.502,1247.6 1005.82,1239.05C1011.92,1230.8 1020.41,1223.27 1029.18,1214.94C1041.99,1202.78 1055.43,1188.88 1062.4,1168.14C1069.38,1147.34 1069.83,1119.72 1056.88,1080.21C1052.47,1066.78 1048.15,1057.07 1045.97,1049.17C1044.42,1043.54 1043.95,1038.76 1045.12,1034.25C1047.02,1026.91 1053.35,1020.12 1067.42,1011.46C1069.88,1009.94 1071.36,1007.18 1072.5,1003.8C1074.45,998.037 1075.32,990.562 1076.97,983.41C1079.94,970.502 1085.41,958.725 1102.27,957.903C1117.66,957.152 1125.59,956.732 1132.29,953.637C1138.98,950.542 1144.39,944.791 1154.85,933.639C1164.61,923.229 1174.04,917.645 1183.48,915.52C1197.58,912.346 1211.79,916.907 1227.4,925.157C1264.99,945.022 1311.09,986.502 1385.91,984.875C1422.39,984.082 1421.3,983.765 1457.44,990.993C1457.55,991.014 1457.65,991.045 1457.75,991.083ZM1456.48,994.923C1420.95,987.817 1421.97,988.133 1386,988.915C1310.29,990.561 1263.54,948.831 1225.51,928.729C1210.87,920.992 1197.59,916.485 1184.36,919.462C1175.59,921.439 1166.87,926.721 1157.8,936.403C1146.81,948.123 1141.02,954.052 1133.98,957.304C1126.95,960.556 1118.63,961.15 1102.47,961.939C1087.89,962.65 1083.48,973.153 1080.9,984.318C1079.22,991.608 1078.32,999.221 1076.33,1005.1C1074.85,1009.48 1072.73,1012.93 1069.54,1014.9C1056.78,1022.75 1050.75,1028.61 1049.03,1035.26C1048.02,1039.14 1048.53,1043.25 1049.87,1048.1C1052.03,1055.95 1056.34,1065.6 1060.72,1078.95C1074.05,1119.6 1073.41,1148.03 1066.23,1169.42C1059.02,1190.87 1045.21,1205.3 1031.97,1217.87C1023.38,1226.03 1015.04,1233.38 1009.07,1241.45C1003.33,1249.22 999.825,1257.66 1000.64,1268.24C1002.95,1298.22 1024.88,1309.08 1050.89,1320.57C1077.97,1332.53 1109.44,1345.02 1129.69,1378.01C1139.21,1393.53 1145.11,1403.16 1153.42,1410.56C1165.94,1421.7 1183.89,1427.76 1227.48,1441.46C1258.34,1451.16 1280.67,1446.97 1305.92,1441.43C1344.53,1432.94 1389.86,1421.23 1481.3,1449.06C1503.78,1455.91 1518.51,1455.21 1529.44,1449.72C1540.38,1444.21 1547.46,1433.98 1554.74,1422.15C1564.86,1405.73 1575.29,1386.29 1595.71,1371.21C1615.63,1356.51 1626.75,1340.9 1631.34,1324.85C1638.25,1300.74 1630.46,1275.76 1616.25,1251.7C1592.12,1210.85 1549.47,1172.7 1526.22,1145.92C1490.99,1105.35 1489.89,1073.28 1489.2,1048.18C1488.8,1033.77 1488.67,1021.74 1481.58,1011.83C1476.9,1005.29 1469.18,999.721 1456.48,994.923Z"/>
                <g transform="matrix(1,0,0,1,9.22681,-14.8559)">
                    <path d="M1457.75,991.083C1471.53,996.265 1479.8,1002.4 1484.86,1009.47C1492.41,1020.01 1492.82,1032.75 1493.24,1048.07C1493.91,1072.51 1494.95,1103.76 1529.27,1143.27C1552.64,1170.19 1595.48,1208.58 1619.73,1249.65C1634.55,1274.73 1642.43,1300.83 1635.23,1325.96C1630.42,1342.72 1618.91,1359.11 1598.11,1374.46C1578.16,1389.18 1568.06,1408.23 1558.18,1424.27C1550.47,1436.79 1542.84,1447.5 1531.25,1453.33C1519.64,1459.17 1504,1460.2 1480.12,1452.93C1389.75,1425.42 1344.95,1436.99 1306.79,1445.37C1280.86,1451.07 1257.94,1455.27 1226.27,1445.32C1181.77,1431.33 1163.52,1424.96 1150.73,1413.58C1142.18,1405.96 1136.04,1396.1 1126.24,1380.12C1106.5,1347.94 1075.67,1335.93 1049.26,1324.26C1021.78,1312.12 999.046,1300.23 996.61,1268.55C995.714,1256.91 999.502,1247.6 1005.82,1239.05C1011.92,1230.8 1020.41,1223.27 1029.18,1214.94C1041.99,1202.78 1055.43,1188.88 1062.4,1168.14C1069.38,1147.34 1069.83,1119.72 1056.88,1080.21C1052.47,1066.78 1048.15,1057.07 1045.97,1049.17C1044.42,1043.54 1043.95,1038.76 1045.12,1034.25C1047.02,1026.91 1053.35,1020.12 1067.42,1011.46C1069.88,1009.94 1071.36,1007.18 1072.5,1003.8C1074.45,998.037 1075.32,990.562 1076.97,983.41C1079.94,970.502 1085.41,958.725 1102.27,957.903C1117.66,957.152 1125.59,956.732 1132.29,953.637C1138.98,950.542 1144.39,944.791 1154.85,933.639C1164.61,923.229 1174.04,917.645 1183.48,915.52C1197.58,912.346 1211.79,916.907 1227.4,925.157C1264.99,945.022 1311.09,986.502 1385.91,984.875C1422.39,984.082 1421.3,983.765 1457.44,990.993C1457.55,991.014 1457.65,991.045 1457.75,991.083ZM1456.48,994.923C1420.95,987.817 1421.97,988.133 1386,988.915C1310.29,990.561 1263.54,948.831 1225.51,928.729C1210.87,920.992 1197.59,916.485 1184.36,919.462C1175.59,921.439 1166.87,926.721 1157.8,936.403C1146.81,948.123 1141.02,954.052 1133.98,957.304C1126.95,960.556 1118.63,961.15 1102.47,961.939C1087.89,962.65 1083.48,973.153 1080.9,984.318C1079.22,991.608 1078.32,999.221 1076.33,1005.1C1074.85,1009.48 1072.73,1012.93 1069.54,1014.9C1056.78,1022.75 1050.75,1028.61 1049.03,1035.26C1048.02,1039.14 1048.53,1043.25 1049.87,1048.1C1052.03,1055.95 1056.34,1065.6 1060.72,1078.95C1074.05,1119.6 1073.41,1148.03 1066.23,1169.42C1059.02,1190.87 1045.21,1205.3 1031.97,1217.87C1023.38,1226.03 1015.04,1233.38 1009.07,1241.45C1003.33,1249.22 999.825,1257.66 1000.64,1268.24C1002.95,1298.22 1024.88,1309.08 1050.89,1320.57C1077.97,1332.53 1109.44,1345.02 1129.69,1378.01C1139.21,1393.53 1145.11,1403.16 1153.42,1410.56C1165.94,1421.7 1183.89,1427.76 1227.48,1441.46C1258.34,1451.16 1280.67,1446.97 1305.92,1441.43C1344.53,1432.94 1389.86,1421.23 1481.3,1449.06C1503.78,1455.91 1518.51,1455.21 1529.44,1449.72C1540.38,1444.21 1547.46,1433.98 1554.74,1422.15C1564.86,1405.73 1575.29,1386.29 1595.71,1371.21C1615.63,1356.51 1626.75,1340.9 1631.34,1324.85C1638.25,1300.74 1630.46,1275.76 1616.25,1251.7C1592.12,1210.85 1549.47,1172.7 1526.22,1145.92C1490.99,1105.35 1489.89,1073.28 1489.2,1048.18C1488.8,1033.77 1488.67,1021.74 1481.58,1011.83C1476.9,1005.29 1469.18,999.721 1456.48,994.923Z"/>
                </g>
            </g>
        </g>
    </g>
</svg>
