<?xml version="1.0" encoding="UTF-8" standalone="no"?>
<!DOCTYPE svg PUBLIC "-//W3C//DTD SVG 1.1//EN" "http://www.w3.org/Graphics/SVG/1.1/DTD/svg11.dtd">
<svg width="100%" height="100%" viewBox="0 0 2481 1749" version="1.1" xmlns="http://www.w3.org/2000/svg" xmlns:xlink="http://www.w3.org/1999/xlink" xml:space="preserve" xmlns:serif="http://www.serif.com/" style="fill-rule:evenodd;clip-rule:evenodd;stroke-linecap:round;stroke-linejoin:round;stroke-miterlimit:1.5;">
    <g id="Ebene1">
        <g>
            <g id="Ebene5">
                <path d="M1111.98,876.872C1130.87,802.858 1129.89,684.987 1128.82,687.146C1125.45,693.884 1130.3,695.021 1099.68,776.689C1091.78,797.75 1030.61,999.346 1066.28,827.856C1093.29,698.014 1091.17,697.935 1096.84,596.893C1093.23,614.391 1093.18,663.027 1008,874.76C1037.61,678.312 1043.79,679.422 1048.51,554.964C1022.24,637.765 1023.75,637.593 992.37,718.415C1007.24,626.998 1010.07,627.863 1015.11,535.066C1011.85,545.725 974.187,668.816 971.05,667.248C968.994,666.22 968.53,665.336 983.842,525.117C966.16,603.624 965.892,603.127 940.492,679.329C950.933,572.598 963.189,484.472 951.862,522.985C935.26,579.431 922.492,660.827 920.593,672.933C928.583,597.474 930.189,598.188 936.228,522.274C901.005,618.337 909.508,620.162 900.695,684.304C911.346,569.512 915.033,566.463 920.593,532.223C891.897,668.529 893.151,668.17 871.558,805.826C869.805,817 880.611,803.619 913.487,670.801C873.896,868.757 865.186,865.908 838.157,949.379C835.938,956.233 836.823,963.844 834.604,970.698C871.622,902.73 874.672,904.661 899.984,842.069C903.734,832.798 902.634,832.613 943.334,724.811C934.272,810.904 939.426,811.239 905.67,952.221C909.282,938.755 960.39,748.263 929.121,779.532C905.028,803.624 850.449,1013.3 864.451,947.957C870.679,918.898 935.688,739.687 911.355,780.242C903.484,793.36 913.665,797.628 838.868,957.196C844.705,945.02 895.473,839.133 890.746,796.587C890.018,790.04 886.372,797.623 855.924,871.206C837.279,916.264 839.122,916.541 827.497,963.592C853.457,883.983 855.918,885.093 870.847,802.983C854.116,872.138 843.665,869.073 832.472,939.429C847.197,869.204 848.979,870.122 868.715,801.562C852.319,863.05 842.95,860.036 831.761,922.374C837.373,883.092 839.381,884.065 852.37,846.333C849.207,855.94 821.092,941.328 826.076,969.988C827.495,978.145 834.476,971.775 881.507,882.577C972.609,709.798 985.987,719.124 1012.27,682.172C1012.4,683.797 1025.03,727.024 1020.8,783.796C1017.08,833.619 1017.61,832.99 1014.4,882.577C1021.73,862.234 1034.07,843.935 1041.4,823.592C1065,758.126 1056.61,756.097 1079.78,689.989C1091.11,657.647 1105.4,626.392 1116.74,594.05C1125.16,613.923 1161.47,622.413 1157.95,753.237C1157.35,775.558 1156.08,797.927 1152.98,820.039C1150.15,840.191 1143.02,859.582 1140.19,879.734C1143.35,852.108 1149.81,824.925 1152.98,797.298C1155.08,778.935 1156.33,572.681 1192.06,573.441C1198.03,573.568 1242.09,625.315 1221.2,782.374C1216.51,817.654 1192.5,902.615 1196.33,879.024C1224.87,703.007 1224.16,703.481 1242.52,526.538C1250.77,549.563 1272.65,566.051 1280.9,589.076C1306.78,661.345 1287.65,871.037 1231.15,989.175C1213.5,1026.08 1234.18,979.232 1247.5,940.851C1311.59,756.037 1301.93,669.562 1305.77,643.796C1305.82,655.726 1324.54,767.97 1286.58,896.79C1283.53,907.145 1259.15,989.873 1232.57,1020.44C1225.2,1028.92 1210.09,1027.6 1202.72,1036.08C1233.03,890.066 1233.8,890.832 1259.58,743.999C1255.87,783.43 1257.6,823.247 1253.89,862.678C1248.99,914.864 1221.13,1059.36 1192.78,1132.02C1172.15,1184.86 1225.01,1023.34 1236.84,1008.36C1278.18,955.993 1306.93,839.707 1310.74,824.303C1351.07,661.212 1315.5,563.117 1313.59,542.172C1318.73,584.556 1332.6,625.574 1337.75,667.959C1341.63,699.954 1341.08,732.381 1340.59,764.608C1339.16,858.623 1318.7,919.241 1317.85,925.216C1324.74,886.93 1337.25,849.798 1344.14,811.511C1368.26,677.546 1347.62,527.262 1354.8,521.563C1370.3,509.277 1392.06,559.951 1393.89,564.203C1446.02,685.551 1411.39,889.557 1409.53,914.556C1413.43,886.157 1421.25,858.387 1425.16,829.988C1444.86,686.886 1428.78,686.978 1415.21,542.883C1415.83,544.467 1474.01,621.765 1479.88,777.4C1481.09,809.364 1480.43,841.464 1477.75,873.338C1474.74,909.091 1465.84,944.184 1462.82,979.937C1467.29,956.104 1476.84,933.415 1481.3,909.582C1485.86,885.206 1488.09,860.412 1489.83,835.673C1499.7,695.039 1471.9,626.299 1466.38,594.05C1486.5,650 1518.97,685.834 1526.78,830.699C1527.44,842.848 1526.67,842.792 1525.36,982.779C1528.61,949.563 1538.46,917.215 1541.71,883.998C1552.79,770.527 1501.92,655.117 1528.91,680.04C1550.4,699.874 1563.41,746.284 1565.16,752.527C1591.54,846.644 1583.62,941.093 1583.64,941.561C1584.01,920.934 1586.1,900.362 1586.48,879.734C1588.02,794.783 1572.51,758.032 1565.87,724.811C1570.21,737.607 1588.36,749.71 1602.11,864.1C1608.49,917.141 1607.06,962.395 1607.09,962.881C1620.33,838.602 1611.86,838.474 1612.06,805.826C1626.66,862.223 1627.53,861.927 1629.83,920.242C1630.54,892.289 1631.25,864.337 1631.96,836.384C1633.38,884.489 1634.38,883.934 1631.25,931.612C1627.67,818.96 1609.24,823.115 1558.05,692.832C1544.13,657.397 1453.52,522.922 1393.89,467.553C1363.75,439.564 1362.05,442.797 1324.25,427.046C1283.3,409.983 1190.93,472.247 1196.33,385.828C1196.54,382.374 1198,359.022 1228.31,356.691C1297.08,351.401 1340.71,572.632 1261,471.817C1254.33,463.381 1212.43,410.397 1202.01,351.006C1190.99,288.145 1326.16,337.855 1340.59,453.34C1354.25,562.6 1174.38,284.116 1273.08,339.635C1337.69,375.981 1399.31,464.817 1408.1,477.503C1342.02,375.372 1338.01,374.774 1342.01,368.772C1352.13,353.591 1406.4,416.783 1410.95,422.071C1423.68,436.899 1422.14,437.31 1447.19,479.635C1409.61,411.577 1404.46,404.97 1410.24,407.858C1415.97,410.724 1435.9,418.288 1505.46,564.203C1466.11,462.273 1452.85,454.321 1460.69,459.026C1471.26,465.364 1507.32,551.339 1531.05,655.167C1500.37,533.529 1479.71,512.869 1487.7,520.853C1511.64,544.797 1528.55,616.242 1553.08,709.177C1551.35,701.801 1550.18,662.621 1518.26,584.101C1504.29,549.76 1499.41,553.009 1489.83,537.198C1494.72,553.822 1540.61,709.862 1513.28,752.527C1494.71,781.514 1471.8,759.934 1469.22,757.501C1454.73,743.848 1277.6,397.559 1233.28,519.431C1232.74,520.933 1216.42,691.266 1155.82,658.72C1124.03,641.647 1086.25,527.174 1085.47,525.117C1071.74,489.011 1012.9,396.009 1124.55,410.701C1146.78,413.626 1133.09,397.6 1125.97,397.909C1119.82,398.177 1053.89,448.026 1047.8,452.63C1050.04,418.99 1042.75,415.024 1059.88,402.173C1061.46,400.989 1130.95,348.874 1076.23,383.696C1025.04,416.268 1017.96,408.491 1008,422.071C984.795,453.72 957.802,463.395 950.441,477.503C950.028,478.293 922.222,573.069 914.197,618.923" style="fill:none;stroke:white;stroke-width:115.07px;"/>
                <path d="M915.619,1027.55C916.293,1018.66 919.919,1010.15 920.593,1001.26C921.973,983.042 903.768,930.347 898.563,862.678C896.657,837.897 897.142,767.669 897.142,758.923" style="fill:none;stroke:white;stroke-width:35.43px;"/>
                <path d="M1248.54,1138.09C1252.47,1190.1 1250.78,1194.91 1233.39,1255.76C1244.05,1159.84 1238,1159.99 1237.2,1144.02C1231.16,1217.52 1235.31,1217.76 1218.16,1289.41C1218.07,1279.42 1217.14,1178.34 1208.63,1164.98C1206.51,1161.64 1201.27,1431.87 1195.94,1224.02C1195.9,1222.52 1189.5,1122.9 1188.32,1206.88C1187.57,1260.22 1187.68,1259.67 1187.68,1313.53C1191.34,1254.96 1190.36,1255.46 1186.41,1197.35C1191.69,1257.99 1191.76,1257.63 1196.57,1318.61C1196.78,1305.07 1197,1291.52 1197.21,1277.98L1197.21,1325.6C1197.42,1317.77 1197.63,1309.93 1197.84,1302.11C1197.42,1320.66 1191.54,1359.45 1226.41,1354.8C1241.54,1352.78 1247.46,1255.08 1248,1246.24C1245.49,1253.5 1217.84,1333.53 1214.98,1336.39C1210.54,1340.83 1208.51,1333.67 1223.24,1258.3C1223.41,1260.8 1223.4,1374.11 1265.77,1315.44C1265.48,1315.94 1247.25,1353.19 1244.19,1344.01C1239.46,1329.83 1260.3,1309.16 1242.28,1257.03C1222.9,1200.97 1225.36,1200.63 1223.87,1139.58" style="fill:none;stroke:white;stroke-width:35.43px;"/>
                <path d="M1675.55,917.825C1676.44,916.24 1676.49,914.743 1676.5,914.464C1676.76,905.68 1677.77,906.103 1679.13,897.138C1678.38,912.832 1677.63,928.526 1676.87,944.22C1688.07,885.743 1684.95,883.903 1686.67,884.332C1689.59,885.061 1690.89,894.458 1682.15,949.116C1689.47,920.127 1689.7,920.372 1696.08,891.112C1689.79,947.755 1684.07,959.826 1686.29,955.143C1686.51,954.682 1686.46,954.659 1702.11,876.422C1708.73,843.336 1686.65,791.467 1668.21,763.803C1657.06,747.082 1661.51,744.851 1649.76,728.397C1642.4,718.098 1564.44,568.267 1546.17,511.822C1541.26,496.618 1517.97,447.228 1516.04,444.778C1514.15,442.372 1515.72,441.339 1494.57,413.139" style="fill:none;stroke:white;stroke-width:35.43px;"/>
                <path d="M1382.77,340.635C1393.14,342.85 1395.89,336.354 1436.91,355.658C1487.8,379.604 1494.79,389.334 1519.29,448.659" style="fill:none;stroke:white;stroke-width:35.43px;"/>
                <path d="M1333.52,317.376C1353.66,290.815 1316,264.923 1312.1,262.243C1299.98,253.909 1300.16,254.118 1286.92,248.1C1274.38,242.401 1240.95,227.205 1114.79,250.859C1112.07,251.37 1102.01,253.256 1087.54,272.246C1063.82,303.39 1071.63,324.043 1076.51,341.924C1077.78,335.424 1090.98,267.949 1109.62,266.037C1148.36,262.064 1125.26,389.824 1112.73,322.953C1103.65,274.573 1123.6,264.096 1126.18,265.002C1151.63,273.945 1147.38,382.854 1121.69,338.82C1101.68,304.505 1111.23,290.178 1111.69,281.904C1115.37,291.678 1119.05,301.451 1122.73,311.224C1121.1,284.422 1111.25,280.92 1128.94,262.932C1163.07,228.234 1192.53,339.465 1166.54,303.636C1152.22,283.909 1151.32,245.087 1175.16,246.72C1179.66,247.028 1184.1,248.819 1187.92,251.204C1195.67,256.032 1221.73,287.231 1224.49,290.528C1223.73,286.883 1207.66,234.893 1234.14,253.964C1249.49,265.012 1247.36,268.843 1265.54,273.626C1304.78,283.952 1319.19,326.755 1313.83,302.601C1311.38,291.572 1300.62,284.97 1298.99,283.974C1277.19,270.592 1264.88,267.078 1262.09,265.692C1313.22,294.841 1347.12,315.912 1338.32,321.573C1331.71,325.821 1273.04,297.251 1235.18,305.705C1196.87,314.26 1180.06,365.739 1176.54,374.004C1152.89,429.577 1144.85,423.562 1138.94,427.815" style="fill:none;stroke:white;stroke-width:35.43px;"/>
                <path d="M1189.77,454.106C1182.53,497.551 1187.04,497.702 1185.34,519.295C1184.53,529.511 1182.31,491.968 1179.19,443.525C1180.59,447.691 1195.7,492.617 1196.26,495.745C1198.19,506.549 1193.44,510.446 1193.18,511.786" style="fill:none;stroke:white;stroke-width:35.43px;"/>
                <path d="M1078.38,345.262C1069.68,349.327 1059.81,347.922 1052.23,350.349C1049.67,351.167 1050.44,352.999 1021.17,362.978C1068.1,333.43 1067.49,332.059 1074.07,331.236C1094.01,328.744 983.864,363.708 963.487,373.217C886.712,409.045 893.162,505.764 878.503,546.599" style="fill:none;stroke:white;stroke-width:35.43px;"/>
            </g>
            <g id="Ebene3">
                <path d="M1449.25,1488.96C1452.89,1487.14 1451.29,1457.25 1452.5,1452.65C1457.23,1434.71 1459.78,1435.82 1467.33,1418.85L1465.86,1417.42C1462.45,1417.62 1460.56,1417.72 1423.42,1412.19C1407.17,1409.77 1397.8,1407.34 1395.61,1406.77C1393.67,1406.27 1393.51,1407.51 1370.86,1402.98C1366.56,1402.12 1368.62,1408.88 1366.16,1419.06C1365.7,1420.99 1366.69,1421.15 1362.01,1443.62C1360.19,1452.34 1363.39,1462.79 1366.53,1464.75C1372.55,1468.52 1391.89,1477.55 1407.89,1489.14C1417.82,1496.33 1435.55,1495.53 1442.93,1489.14M1335.96,1348.38C1333.28,1347.04 1332.4,1351.91 1298.92,1342.78C1271.83,1335.39 1257.67,1342.99 1254.54,1344.67C1258.75,1282.25 1252.05,1225.58 1258,1154.12C1270.48,1004.42 1238.1,888.17 1235.42,875.18C1281.43,866.364 1279.23,853.059 1340.7,846.588C1346.36,845.993 1358.59,844.706 1406.42,819.553C1385.44,879.872 1389.01,902.293 1364.82,1005.96C1349.72,1070.67 1356.6,1071.52 1344.15,1136.89C1339.23,1162.74 1333.38,1178.88 1333.38,1339.77M1041.52,833.402C1037.7,831.448 1033.87,829.494 1030.05,827.539L1043.93,828.928L1036.18,831.082M1174.91,1347.01C1175.44,1345.96 1175.17,1346.28 1174.27,1340.88C1168.07,1350.19 1166.25,1339.83 1156.78,1339.34C1128.97,1337.87 1125.1,1334.39 1106.1,1333.2C1118.01,1291.61 1114.43,1291.03 1112.85,1198.06C1112.19,1159.18 1109.99,1151.38 1082.27,1077.45C1096.6,1129.99 1102.35,1127.85 1115,1180.4C1107.1,1155.74 1105.15,1156.48 1099.5,1118.81C1095.15,1089.8 1092.03,1090.9 1062.46,1018.45C1072.61,1054.21 1072.6,1053.92 1086.58,1088.22C1070.25,1055.57 1072.37,1054.93 1068.06,1032.66C1066.72,1025.77 1039.36,975.344 1023.69,894.398C1022.84,890.016 1015.76,853.451 1010.77,840.127C1003.09,819.644 1025.6,834.651 1026.71,835.389C1037.61,842.66 1051.39,834.199 1063.32,843.142C1066.77,845.73 1105.42,846.256 1159.31,873.026C1163.04,900.655 1160.88,900.812 1167.55,927.995C1187.7,1010.03 1180.14,1011.12 1175.31,1093.39C1169.81,1186.81 1184.48,1308.37 1175.74,1334.6M1074.64,1427.6C1075.12,1428.76 1075.59,1429.93 1076.07,1431.09C1081.86,1412.97 1075.83,1403.78 1072.79,1393.15C1077.74,1425.56 1079.62,1428.64 1077.7,1426.72C1076.36,1425.38 1076.76,1425.14 1072.52,1408.16C1075.43,1412.89 1078.34,1417.62 1081.25,1422.35L1080.16,1420.44L1081.8,1423.72C1081.06,1422.95 1081.44,1421.49 1080.71,1420.72C1080.06,1420.04 1072.33,1419.85 1068.15,1396.42C1068.03,1395.72 1067.56,1369.96 1067.61,1369.12C1067.96,1362.92 1074.15,1361.89 1074.97,1361.75C1078.99,1361.09 1071,1380.85 1068.42,1375.13C1061.97,1360.79 1057.15,1368.56 1040.31,1367.76C1017.48,1366.67 930.964,1404.45 932.758,1406.25C944.223,1417.71 945.519,1425.06 945.86,1426.99C946.12,1428.46 956.55,1457.55 957.052,1458.66C959.345,1463.7 967.216,1465.28 968.244,1465.48C971.368,1466.11 974.313,1474.78 999.908,1464.12C1001.54,1463.44 1001.86,1464.51 1020.93,1457.29C1031.64,1453.24 1030.69,1451.46 1041.4,1447.74C1044.36,1446.71 1060.23,1441.19 1076.61,1430.54C1086.45,1424.15 1077.04,1410.4 1076.07,1408.98M1656.6,731.353C1649.03,737.975 1630.87,785.145 1615.52,787.703C1589.92,791.969 1562.99,790.971 1517.83,798.499C1495.71,802.185 1446.96,787.47 1427.77,814.035C1428.96,809.291 1428.7,809.361 1429.88,806.662C1441.41,780.306 1441.03,696.035 1454.1,691.328C1464.27,687.667 1476.38,683.309 1587.08,715.29C1591.8,716.653 1591.75,716.405 1596.3,718.45C1605.06,722.393 1624.68,724.058 1637.11,728.719C1624.6,759.639 1609.51,777.776 1608.93,776.907C1608.31,775.964 1629.17,699.784 1613.67,745.308C1611.53,751.615 1609.69,758.03 1607.36,764.267C1602.07,778.351 1597.13,779.486 1595.51,781.91C1595.55,781.799 1608.26,753.069 1609.73,733.986C1609.77,733.362 1611.66,708.77 1603.14,729.773C1595.71,748.083 1593.33,780.324 1583.92,779.54C1583.27,779.486 1583.07,779.04 1586.03,771.64C1599.11,738.938 1593.78,737.841 1595.51,724.243C1529.59,650.314 1305.57,847.498 1571.81,787.176C1575.38,786.366 1574.58,780.379 1575.76,776.907C1586.74,744.632 1584.06,720.629 1584.18,719.24C1577.95,738.15 1577.89,737.946 1572.07,757.158C1567.35,772.753 1565.85,771.943 1560.22,785.333C1574.47,728.906 1573.11,725.242 1571.28,720.293C1568.1,711.706 1553.06,792.636 1544.42,791.916C1543.82,791.865 1566.14,733.181 1557.85,709.497C1556.45,705.486 1550.14,735.46 1548.63,740.832C1534.17,792.45 1530.23,790.766 1529.41,792.706C1548.48,725.293 1541.44,722.88 1541.79,710.024C1540.29,717.731 1539.07,725.489 1537.58,733.196C1526.16,792.062 1516.39,795.15 1517.04,790.336C1517.43,787.445 1518.48,784.678 1519.41,781.91C1538.09,725.852 1532.52,722.97 1536,702.651L1533.1,700.808C1512.28,793.523 1507.23,791.98 1505.19,794.022C1498.64,800.573 1504.19,790.978 1509.14,775.853C1517.8,749.391 1515.48,749.087 1521.51,704.494C1520.26,708.874 1516.97,712.49 1515.72,716.87C1514.8,720.092 1517.52,720.631 1507.56,757.948C1501.18,781.831 1494.75,789.739 1493.34,793.233C1494.03,790.452 1502.03,758.474 1502.03,758.474C1508.74,727.069 1507.41,703.644 1507.56,702.124C1506.37,706.498 1503.74,710.39 1502.55,714.763C1497.88,732.007 1500.48,732.404 1495.97,749.785C1487.18,783.675 1471.4,812.39 1479.38,787.966C1485.95,767.868 1486.9,768.315 1491.23,748.732C1498.72,714.861 1494.71,703.459 1495.18,697.384C1490.82,717.465 1490.18,717.148 1486.49,737.409C1477.78,785.201 1473.29,783.815 1466.48,801.132C1467.71,796.294 1480.44,746.14 1481.49,740.569C1487.94,706.301 1483.21,702.45 1483.6,693.961C1476.09,720.687 1476.52,720.575 1471.22,747.942C1470.34,752.494 1460.76,801.98 1453.84,803.239C1452.5,803.483 1475.74,729.049 1474.12,700.544C1473.51,690.006 1460.82,749.912 1459.9,754.261C1458.64,760.19 1458.43,766.348 1456.74,772.167C1454.99,778.177 1451.38,783.536 1449.63,789.546C1461.76,738.809 1458.95,738.21 1462.53,695.278C1460.49,717.496 1460.98,717.37 1457,739.252L1457,728.193L1454.89,739.252M1212.76,1275.58C1212.4,1274.97 1212.63,1278.24 1212.27,1277.63C1211.64,1276.56 1212.95,1273.51 1213.51,1273.51C1213.85,1273.51 1212.61,1289.73 1208.98,1277.63M1213.92,1334.87C1215.01,1345.74 1209.98,1342.94 1209.8,1342.29C1209.19,1340.05 1212.27,1329.79 1212.27,1338.99M1211.45,1068.02C1216.27,1072.84 1207.73,1079.28 1207.33,1072.13C1207.3,1071.58 1207.03,1066.74 1207.74,1065.13C1208.63,1063.13 1208.04,1065.51 1209.39,1067.19M1198.72,865.552L1198.68,869.523L1198.27,865.817L1199.51,872.818M1209.65,671.381C1209.35,671.689 1209.83,671.817 1208.06,676.537M1199.3,468.866C1201.11,469.903 1200.58,470.029 1200.16,472.124M1201.8,363.318C1202.17,364.597 1202.55,365.876 1202.92,367.155M1253.45,859.438C1260.12,718.006 1255.98,717.8 1273.3,594.121C1275.46,578.636 1283.12,488.685 1281.17,445.742M1280.88,440.107C1282.63,403.989 1284.28,401.534 1280.83,402.027C1278.08,402.42 1278.67,400.754 1246.72,395.381C1246.66,462.869 1230.29,470.035 1243.2,560.434C1256.55,653.882 1228.53,744.635 1234.89,865.433M1272.03,549.313C1271.63,550.842 1267.7,703.204 1267.7,710.964C1267.71,710.911 1273.08,651.291 1270.33,654.953C1268.98,656.76 1272.64,711.407 1252.83,784.041M1262.23,325.961C1263.75,324.997 1265.25,328.219 1269.79,322.32C1288.88,297.507 1270.53,258.92 1175.04,271.651C1140.43,276.266 1133.48,293.317 1134.44,299.068C1141.25,339.939 1206.8,325.523 1234.39,323.014C1246.21,321.939 1247.74,324.571 1255.21,315.379C1272.93,293.568 1242.64,291.391 1229.53,281.369C1218.85,273.2 1145.98,275.186 1144.16,292.474C1143.59,297.917 1144.36,298.066 1141.38,302.538M1150.06,315.379C1136.6,310.894 1147.06,292.028 1148.04,290.266C1147.07,302.881 1146.28,303.032 1151.1,314.685C1150.15,312.499 1139.42,287.827 1155.26,285.186C1156.4,284.996 1147.98,286.401 1147.98,297.68C1147.98,320.638 1161.37,322.508 1165.33,324.749C1161.51,321.795 1157.69,318.841 1153.88,315.886C1167.38,323.249 1168.39,320.623 1181.99,327.873C1194.3,334.441 1127.72,317.525 1161.51,287.963C1171.52,279.203 1209.29,279.24 1216.69,280.328C1250.96,285.367 1255.67,300.269 1257.99,303.58M1160.55,863.095C1164.32,841.722 1156.49,758.638 1171.87,670.706C1182.29,611.175 1171.2,610.928 1163.12,425.219C1161.69,392.207 1164.16,383.485 1131.62,378.835C1128.09,378.331 1109.56,376.262 1125.93,423.031C1139.46,461.691 1125.76,551.262 1146.06,727.155C1147.27,737.672 1155.12,805.702 1153.06,859.306M1653.34,981.426C1665.38,998.955 1615.86,1144.41 1647.85,1070.08C1677.34,1001.56 1671.12,984.404 1674,976.506C1683.11,951.429 1670.01,1046.18 1669.18,1052.19C1679.49,1011.56 1680.52,1012.09 1683.01,970.537C1682.96,1010.83 1688.6,1054.34 1654.04,1121C1665.3,1095.98 1665.75,1096.42 1671.93,1069.39C1649.43,1133.68 1635.14,1146.91 1620.33,1167.78C1639.36,1143.99 1642.44,1145.67 1651.29,1116.18C1632.45,1156.69 1628.24,1153.7 1604.5,1191.18C1561.68,1258.79 1568.79,1261.91 1531.57,1332.23C1495.02,1401.27 1476.9,1399.62 1469.64,1398.97C1410.05,1393.55 1375.09,1399.72 1366.44,1372.82C1356.03,1340.43 1345.19,1341.94 1349.92,1270.99C1356.91,1166.16 1351.88,1165.41 1391.9,988.203C1406.76,922.391 1400.89,914.504 1417.35,913.894C1461.48,912.26 1663.25,927.228 1688.44,952.424C1692.9,956.882 1700.3,964.277 1680.88,1030.86M1680.27,1029.69C1663.17,1028.68 1644.5,1021.84 1658.72,1029.42C1668.88,1034.85 1644.02,1015.94 1641.02,1030.92M1607.99,1123.51C1627.16,1108.73 1650.62,1049.46 1653.35,1042.56C1656.1,1074.11 1656.21,1073.69 1649.91,1104.48C1664.33,1079.08 1664.2,1079.47 1674,1052.19C1674,1071.71 1679.37,1073.76 1648.54,1129.25C1626.24,1122.62 1701.48,950.581 1671.93,1101.73C1685.81,1012.27 1675.45,1010.63 1686.38,982.698C1689.16,975.592 1701.92,957.741 1693.26,946.92M829.454,942.442C817.852,992.993 787.352,943.662 778.048,994.835C784.385,961.199 763.416,912.856 793.787,928.728C821.558,943.241 821.902,958.932 816.566,939.794C796.602,1006.14 777.255,943.441 774.27,1013.09C785.409,947.851 784.436,994.191 793.787,928.728C770.121,1006.63 772.033,960.709 767.345,1030.09C776.858,959.06 775.742,1003.81 787.877,933.332C755.423,1028.67 759.407,985.645 766.715,1086.12C766.353,1069.1 762.539,1068.79 777.418,990.428C766.093,1054.98 761.139,1081.98 773.011,1139.64C771.253,1104.91 770.66,1105.54 771.122,1070.38C767.187,1109.18 766.147,1108.71 770.493,1147.83C761.823,1071.73 762.033,1060.65 759.79,1068.5C748.35,1108.53 757.697,1108.7 765.456,1149.71C765.2,1144.77 757.889,1003.42 755.383,1088.64C752.648,1181.6 831.24,1207.98 868.708,1280.04C932.527,1402.77 933.498,1405.25 937.963,1416.66M1008.99,967.717L1009.13,967.741C1010.4,971.196 1021.25,1000.62 1024.65,1011.07C1035.76,1045.13 1019.69,1005.23 1019.48,1004.6C1016.49,995.645 1014.34,990.693 992.965,890.135C1011.22,977.157 1010.46,977.109 1039.53,1060.87C1014.22,966.746 1001.73,1005.46 988.677,914.649C990.729,928.213 1007.08,903.086 1009.13,916.65C1017.51,972.009 1031.59,1007.71 1032.41,1011.07C1026.38,992.309 1018.4,974.215 1012.37,955.453C1010.22,948.768 994.757,998.845 971.404,921C1020.62,1143.97 1049.28,1092.56 1045.35,1142.35C1043.76,1162.53 1046.69,1125.4 985.204,896.602C1004.56,997.738 1023.12,1085.24 1026.59,1101.61C1030.7,1120.96 1036.67,1140.09 1038.24,1159.81C1039.5,1175.75 1033.74,1191.73 1035,1207.67C1031.79,1183.06 1027.86,1158.55 1024.65,1133.95C1006.74,996.617 1001.2,998.129 993.611,954.16C1006.55,1098.96 1016.23,1219.5 1009.78,1277.52C1007.69,1296.29 1009.06,1241.82 1009.13,1238.71C1014.56,1021.67 983.736,1008.43 975.504,959.333C991.503,1094.79 999.771,1094.06 996.845,1203.14C996.045,1232.96 991.178,1262.57 990.378,1292.39C975.058,1041.71 955.444,991.3 952.869,974.208C956.487,1000.18 978.449,1043.52 974.857,1223.84C973.32,1301 965.041,1299.81 959.982,1338.95C967.145,1187.24 978.698,1186.32 949.635,1037.59C944.643,1012.04 960.756,1094.5 941.875,1362.88C944.822,1231.73 944.788,1231.92 932.821,1101.61C930.791,1079.51 941.627,1197.51 928.294,1379.05C928.095,1360.08 927.199,1341.11 927,1322.14C925.507,1179.52 915.631,1156.47 913.419,1124.25C913.705,1177.93 911.859,1177.42 914.066,1245.83C915.637,1294.53 918.234,1293.92 922.473,1342.83C921.852,1335.23 914.713,1247.77 914.713,1247.77C902.38,1167.36 878.052,1118.52 876.557,1113.25C878.337,1141.88 877.363,1170.63 879.144,1199.26C881.932,1244.09 893.841,1278.5 894.018,1279.46C860.278,1054.16 847.761,1024.38 855.215,1042.11C884.846,1112.61 876.51,1114.79 898.545,1234.19C893.862,1214.12 886.413,1194.76 881.73,1174.69C879.155,1163.65 879.57,1163.63 854.569,1035.64C862.162,1066.38 873.49,1096.1 881.084,1126.83C906.066,1227.93 922.715,1399.97 905.012,1263.93C900.665,1230.53 907.367,1228.96 829.993,953.513C868.454,1058.81 872.684,1057.7 877.203,1097.08C878.956,1112.36 855.476,1065.51 848.748,1043.41C846.643,1036.49 847.695,1036.8 834.52,954.16L838.401,964.507C825.613,940.695 826.162,940.735 808.652,920.531C818.339,929.141 819.719,934.825 829.347,925.704C855.194,901.218 857.323,896.547 905.012,899.836C911.314,900.271 910.61,894.446 983.911,896.602C904.898,899.281 903.257,888.329 877.203,901.776C835.91,923.089 767.823,908.698 818.353,945.752C851.838,970.308 883.596,1058.99 873.323,1043.41C825.12,970.27 786.537,875.49 840.341,939.285C856.462,958.4 910.081,1051.89 911.479,1056.34C915.433,1068.91 910.112,1083.22 914.066,1095.79C857.29,1004.83 856.551,1005.79 814.472,933.465C818.715,942.726 867.503,1049.23 867.503,1049.23C899.235,1124.02 898.61,1140.37 904.365,1157.23C820.051,967.005 816.798,968.771 802.185,937.992C857.434,1040.67 856.42,1040.79 909.539,1144.29C897.455,1114.45 887.994,1083.59 875.91,1053.75C871.175,1042.06 880.61,1064.64 819.295,933.078C821.914,936.646 866.899,963.629 912.773,1051.81C939.373,1102.95 950.917,1149.64 945.755,1135.24C905.649,1023.36 903.909,1024.64 853.922,917.297C866.018,938.551 881.922,957.481 894.018,978.735C936.919,1054.11 957.486,1149.95 945.755,1129.42C924.129,1091.57 926.863,1090.49 864.916,937.345C899.347,1003.99 898.264,1004.14 928.94,1072.51C905.825,1011.32 906.274,1011.76 871.383,916.65C880.322,925.277 891.546,931.305 900.485,939.932C905.451,944.725 904.362,945.005 952.869,1008.48C907.4,944.827 906.502,946.147 881.084,913.417C921.52,966.143 922.031,964.962 976.15,1039.53C942.396,971.009 942.416,971.638 910.186,902.423C919.63,912.416 931.784,919.592 941.228,929.585C950.409,939.3 958.339,950.184 965.803,961.274C973.462,972.653 978.838,985.463 986.498,996.843C951.102,925.228 945.742,917.656 950.282,922.471C953.214,925.581 952.725,925.585 983.264,964.507C970.977,942.088 958.689,919.668 946.402,897.249C953.114,906.769 961.677,914.891 968.39,924.411C971.135,928.305 970.881,928.052 1002.02,973.561C990.378,951.788 978.737,930.016 967.096,908.243L984.558,948.339C956.268,910.482 947.964,937.356 945.818,925.569C941.137,899.856 1027.61,1023.3 991.671,959.333C968.564,918.203 964.849,888.988 930.88,921.824C898.763,952.871 874.325,907.732 886.257,905.656C887.977,905.357 896.218,903.924 907.599,910.183C928.326,921.583 925.778,924.532 965.803,971.621C955.942,962.272 945.268,953.808 935.407,944.459C911.027,921.345 905.216,906.571 902.425,903.07C907.547,909.123 966.45,978.735 966.45,978.735C979.177,997.576 989.291,1018.1 1002.02,1036.94C974.267,1009.51 972.079,1012.17 947.048,982.615C942.361,977.08 942.545,977.633 886.257,915.357C892.571,926.705 958.974,1046.06 963.216,1058.28C967.866,1071.67 965.033,1086.92 969.683,1100.32C929.914,1030.5 927.133,1032.42 895.311,958.687C820.966,786.422 999.82,1164.94 951.575,1155.29C941.298,1153.23 920.602,1102.64 918.593,1097.73C911.131,1079.49 905.846,1060.42 898.545,1042.11C867.73,964.858 853.556,956.471 844.868,939.932C882.387,1025.76 882.149,1025.19 914.713,1112.6C876.475,1034.43 862.284,978.758 864.916,989.082C881.115,1052.63 913.084,1122.21 899.838,1086.09C870.753,1006.76 868.437,1008.17 840.341,928.291C849.395,947.477 858.449,966.663 867.503,985.849C865.021,981.506 839.184,936.29 841.634,928.938C842.176,927.312 852.799,933.544 857.155,932.818C857.403,932.777 836.936,916.147 835.167,914.71C882.174,931.603 882.776,937.552 921.827,926.998C943.841,921.048 946.082,925.98 951.575,928.938M1399.83,979.085C1401.06,980.09 1402.28,981.094 1403.5,982.099M1407.92,928.861C1412.09,931.057 1416.35,929.906 1412.87,933.381M1000.72,1393.97C1001.83,1379.4 1005.41,1332.1 993.997,1211.41C989.164,1160.33 994.691,1224.96 1004.7,1275C1007.36,1288.28 1010.55,1301.45 1013.51,1314.67C1024.07,1361.77 1020.35,1362.09 1024.22,1388.96C1036.01,1304.3 1030.24,1304.02 1040.59,1218.97C1043.58,1194.33 1054.65,1226.85 1050.66,1372.59C1048.92,1435.97 1079.62,1242.76 1079.62,1238.49C1079.62,1226.88 1074.57,1243.45 1066.93,1382.96C1119.65,1283.17 1124.92,1152.24 1015.67,836.958C1119.13,1160.83 1086.47,1168.8 1099.14,1303.96C1100.87,1285.69 1103.08,1267.46 1104.8,1249.19C1113.57,1156.48 1105.15,1126.69 1104.8,1116.35C1105.25,1120.28 1125.16,1204.04 1097.25,1300.18C1064.23,1413.91 1121.74,1164.05 1071.44,1048.35C1068.5,1041.59 1061.43,1034.23 1061.36,1034.5C1057.94,1047.49 1088.03,1207.14 1075.21,1271.22C1072.1,1286.78 1061.96,1300.37 1058.84,1315.92C1061.07,1273.66 1059.54,1274.01 1063.25,1232.19C1076.92,1078.13 1052.28,1056.12 1048.77,1029.46C1061.96,1231.73 1061.71,1302.22 1036.18,1337.96C1034.36,1340.51 1034.69,1336.24 1039.33,1298.93C1061.48,1120.51 1030.61,1039.11 1028.62,1014.98C1032.08,1092.76 1045.58,1283.57 1008.48,1355.59C1003.05,1366.12 1030.3,1313.22 1033.03,1209.52C1035.33,1122.21 1012.54,1080.72 1011,1071.02C1009.9,1108.57 1011.46,1146.16 1010.37,1183.71C1009.57,1211.24 1007.74,1238.75 1005.33,1266.19C997.512,1355.02 985.629,1377.82 982.664,1394.62C985.504,1374.74 991.156,1355.33 993.997,1335.44C1004.59,1261.29 998.948,1261.3 998.404,1141.53C987.701,1243.52 973.476,1382.48 971.331,1403.44C973.806,1384.34 987.071,1281.93 998.404,1164.19C1006.92,1253.36 1006.99,1252.76 1012.25,1341.74C1026.11,1229.54 1032.83,1128.87 1031.77,1144.68C1028.12,1199.53 998.127,1389 976.368,1404.07C961.386,1414.44 976.294,1394.47 999.033,1177.41C989.631,1291.81 998.291,1293.04 968.183,1403.44C964.496,1416.96 967.573,1396.62 975.738,1228.41C953.867,1394.43 953.273,1414.78 951.814,1400.92C950.505,1388.49 952.489,1388.55 958.74,1244.78C955.459,1264.24 953.206,1283.87 949.925,1303.33C941.557,1352.98 943.063,1352.62 936.074,1402.81C938.027,1344.22 938.143,1344.71 941.111,1286.33C938.173,1314.25 935.235,1342.16 932.297,1370.07M1006.92,1086.62L1021.7,1098.09L1016.66,1094.94M772.705,949.613C770.591,961.046 770.78,960.944 769.128,972.41C770.452,963.136 771.777,953.862 773.102,944.588C771.141,951.504 769.965,951.283 767.054,980.877M891.784,722.907C896.83,749.773 891.211,750.207 889.465,749.043C876.127,740.151 881.119,665.39 897.267,719.785C898.019,722.318 909.507,761.015 892.391,752.456C872.789,742.655 867.578,684.428 883.613,691.502C896.767,697.305 892.704,701.315 912.384,749.53C899.893,700.261 905.333,696.998 908.97,698.816C917.763,703.213 914.92,705.644 930.426,757.333C917.898,738.338 910.794,740.307 913.359,719.785C913.578,718.03 916.07,698.097 927.988,703.205C944.295,710.194 946.859,805.55 935.303,751.969C934.299,747.317 933.649,742.576 933.352,737.827C932.057,717.106 939.097,702.403 939.204,701.742C944.405,724.336 949.607,746.93 954.808,769.524C954.32,751.806 953.833,734.089 953.345,716.371C956.108,736.202 958.872,756.032 961.635,775.863C959.319,715.19 961.912,714.487 955.783,702.23C953.195,697.054 969.207,770.156 965.536,780.251C962.645,788.201 965.887,727.295 956.759,696.866C951.557,679.528 961.309,707.159 961.635,708.081C966.436,721.685 965.067,721.789 972.363,778.789C971.951,772.612 968.048,714.059 961.147,702.23C957.97,696.784 970.816,718.805 977.727,779.276C975.275,716.344 969.301,712.439 966.024,716.371C962.91,720.107 972.969,719.287 980.653,775.375C983.03,780.724 983.666,780.026 985.529,785.615C985.84,786.55 985.431,786.465 987.236,797.806C977.138,793.318 975.592,798.126 966.511,791.467C950.308,779.584 945.618,788.879 930.426,775.375C927.726,772.975 838.996,775.373 835.825,781.714C831.51,790.345 829.231,787.114 819.733,787.566C820.343,785.959 830.97,765.92 840.214,735.877C840.685,734.346 840.547,734.33 845.09,686.626C837.897,714.05 838.262,713.802 835.337,742.216C835.337,742.216 831.3,758.366 830.949,759.771C830.698,754.629 828.64,712.436 838.751,695.891C842.262,690.145 843.512,800.602 849.479,756.845C853.324,728.645 854.589,729.103 859.719,701.255C861.152,774.831 863.352,782.345 859.232,777.813C842.406,759.305 868.079,626.583 867.034,722.711C866.998,726.024 866.504,771.432 858.256,763.184C846.449,751.377 865.724,674.033 878.737,720.76C882.77,735.244 885.407,787.147 879.712,771.962C872.95,753.929 890.093,722.424 894.341,743.191C897.08,756.582 890.551,769.756 888.002,770.011C884.905,770.321 890.861,733.304 907.507,766.598C909.111,769.804 929,760.568 930.426,744.166C930.779,740.115 930.562,736.027 930.914,731.976C933.617,700.886 951.514,708.968 954.32,708.081C954.79,688.818 954.205,689.095 955.783,679.311C957.409,693.452 959.034,707.594 960.66,721.735L960.66,682.237L963.098,720.76C963.812,698.989 963.609,699.326 962.61,677.36C962.702,679.064 968.137,779.601 966.511,698.329C966.48,696.783 965.906,668.077 963.098,679.311C962.59,681.344 914.895,685.083 890.44,677.36C866.319,669.743 865.23,672.601 845.286,687.802C845.977,685.53 843.424,683.046 844.115,680.774C844.277,680.242 881.325,667.192 901.656,688.088C918.7,705.606 920.186,704.522 920.186,706.619C920.186,709.129 918.715,706.802 893.854,689.551C902.469,691.177 911.083,692.802 919.698,694.428C916.569,694.382 870.974,693.722 881.175,687.601" style="fill:rgb(217,217,217);stroke:rgb(217,217,217);stroke-width:21.59px;"/>
            </g>
            <g transform="matrix(1,0,0,1,-155.86,-0.270333)">
                <path d="M918.548,-175.847C919.345,-175.52 920.43,-173.844 921.63,-169.638L923.708,-177.896L923.899,-177.794L921.75,-169.211C920.934,-169.211 920.167,-169.425 919.504,-169.801C920.402,-169.344 921.101,-169.301 921.396,-169.308L921.341,-169.323C920.681,-169.352 920.057,-169.523 919.499,-169.804C919.473,-169.819 919.447,-169.834 919.421,-169.85L919.401,-169.855C917.966,-170.624 916.988,-172.138 916.988,-173.879C916.988,-175.247 917.592,-176.475 918.548,-175.847ZM919.504,-169.801C919.47,-169.819 919.436,-169.837 919.401,-169.855C919.434,-169.838 919.466,-169.821 919.499,-169.804C919.501,-169.803 919.503,-169.802 919.504,-169.801ZM901.693,-161.059L903.857,-161.63C902.729,-161.007 901.878,-161.042 901.693,-161.059ZM897.761,-167.628C897.76,-167.625 897.76,-167.623 897.759,-167.62C897.781,-167.636 897.803,-167.651 897.826,-167.665C898.642,-168.074 900.02,-166.75 901.583,-161.124C901.589,-161.119 901.595,-161.114 901.6,-161.109C901.595,-161.163 901.587,-161.244 901.576,-161.35C901.603,-161.255 901.629,-161.16 901.656,-161.063C901.656,-161.063 901.669,-161.061 901.693,-161.059L901.607,-161.036C901.607,-161.036 901.606,-161.045 901.604,-161.063C901.603,-161.063 901.601,-161.063 901.599,-161.063C901.602,-161.054 901.604,-161.045 901.607,-161.036C899.09,-161.036 897.046,-163.08 897.046,-165.597C897.046,-166.499 897.309,-167.34 897.761,-167.628ZM897.761,-167.628C897.928,-168.368 898.436,-169.056 899.452,-169.616C900.6,-170.25 901.411,-162.965 901.576,-161.35C900.004,-166.92 898.625,-168.147 897.826,-167.665C897.804,-167.654 897.782,-167.642 897.761,-167.628ZM1245,237.656L1245.04,237.282C1245.3,235.043 1247.23,233.849 1249.58,242.348L1254.11,238.315L1254.06,238.689L1249.53,242.742C1247.01,242.742 1244.97,240.698 1244.97,238.181C1244.97,238.002 1244.98,237.826 1245,237.656ZM1417.2,853.07C1415.83,852.11 1415.04,850.428 1415.3,848.661C1421.12,809.521 1414.86,802.512 1424.74,738.634C1428.14,716.706 1430.84,699.121 1443.47,461.904C1443.61,459.391 1445.76,457.459 1448.27,457.593C1450.79,457.727 1452.72,459.876 1452.58,462.389C1439.91,700.387 1437.16,718.028 1433.76,740.029C1423.88,803.875 1430.14,810.881 1424.33,850.002C1424.17,851.038 1423.68,851.941 1422.98,852.616C1426.11,852.307 1429.83,851.82 1434.6,850.941C1453.36,847.484 1468.1,837.797 1485.73,836.331C1526.59,832.933 1534.56,822.821 1570.55,803.105C1570.8,802.968 1571.06,802.857 1571.32,802.771C1595.39,684.393 1618.16,569.64 1628.51,481.634C1628.8,479.134 1631.07,477.343 1633.57,477.637C1636.07,477.931 1637.86,480.2 1637.57,482.699C1630.99,538.598 1619.4,605.292 1605.65,676.851C1626.6,673.343 1653.1,677.897 1681.66,685.359C1724.95,696.67 1773.15,714.575 1813.48,718.833C1815.98,719.097 1817.8,721.344 1817.54,723.847C1817.27,726.35 1815.03,728.168 1812.52,727.904C1771.79,723.603 1723.08,705.609 1679.35,694.184C1651.13,686.809 1625.06,682.122 1604.83,686.281C1604.49,686.351 1604.15,686.381 1603.82,686.374C1595.42,729.719 1586.3,774.733 1577.05,820.121C1587.88,813.016 1602.83,805.724 1643.18,805.942C1708.76,806.296 1718.12,806.873 1780.88,790.001C1781.12,789.936 1781.37,789.891 1781.61,789.867C1791.64,776.063 1802.78,758.751 1816.4,733.346C1817.59,731.128 1820.36,730.293 1822.58,731.483C1822.77,731.586 1822.95,731.701 1823.12,731.827C1743.83,581.891 1720.33,510.622 1682.69,429.57C1667.19,396.181 1655.82,377.55 1640.93,365.089C1618.34,346.172 1587.97,341.336 1524.76,320.235C1522.37,319.438 1521.08,316.853 1521.88,314.465C1522.67,312.078 1525.26,310.786 1527.65,311.583C1592.56,333.255 1623.59,338.668 1646.79,358.096C1662.44,371.199 1674.66,390.618 1690.96,425.729C1730.61,511.114 1754.54,585.632 1844.77,752.993C1884.53,826.739 1884.97,861.538 1876.53,905.745C1871.03,934.527 1861.6,967.405 1856.97,1018.39C1847.97,1117.59 1838.18,1115.61 1777.18,1194.75C1761.58,1215 1747.08,1269.11 1668.52,1392.89C1661.21,1404.41 1653.29,1409.75 1642.01,1411.5C1633.5,1430.94 1628.27,1436.88 1625.64,1444.29C1624.14,1448.54 1624.12,1451.18 1624.17,1454.89C1624.26,1461.46 1624.65,1470.9 1619.99,1493.93C1619.68,1495.46 1618.64,1496.66 1617.31,1497.23C1617.08,1498.64 1616.18,1499.93 1614.8,1500.6C1582.78,1516.08 1567.48,1511.71 1550.25,1501.65C1539.66,1495.46 1528.28,1486.82 1511,1479.5C1498.7,1474.3 1499.88,1461.93 1499.91,1461.8C1505.72,1427.74 1502.59,1427.63 1506.61,1393.25C1506.81,1391.52 1507.96,1390.12 1509.49,1389.53C1506.05,1385.14 1503.12,1379.71 1500.7,1373.28C1499.09,1369 1497.71,1364.25 1496.54,1359.05C1495.99,1359.54 1495.32,1359.9 1494.56,1360.09C1471.73,1365.49 1471.28,1366.48 1449.27,1358.05C1445.36,1356.55 1439.65,1356.6 1434.06,1357.06C1424.87,1357.83 1415.94,1359.99 1414.24,1360.4C1411.79,1360.99 1409.32,1359.48 1408.73,1357.04C1408.14,1354.59 1409.65,1352.12 1412.1,1351.53C1413.92,1351.09 1423.48,1348.8 1433.3,1347.97C1440.38,1347.38 1447.58,1347.63 1452.53,1349.53C1471.93,1356.96 1472.33,1355.97 1492.45,1351.21C1493.34,1351 1494.22,1351.06 1495.01,1351.34C1493.88,1344.81 1493.04,1337.7 1492.46,1330.05C1491.9,1330.62 1491.19,1331.04 1490.37,1331.25L1472.3,1335.93C1469.87,1336.56 1467.37,1335.09 1466.74,1332.65C1466.11,1330.21 1467.58,1327.73 1470.02,1327.1L1488.09,1322.42C1489.51,1322.05 1490.95,1322.4 1492.03,1323.24C1490.96,1303.29 1491.54,1280.02 1493.48,1254.1C1501.97,1140.42 1536.31,974.805 1568.95,814.429C1536.41,832.754 1526.67,842.078 1486.48,845.421C1478.16,846.113 1470.54,848.804 1462.78,851.686C1454.38,854.802 1445.83,858.147 1436.25,859.911C1415.95,863.653 1415.37,859.922 1395.98,866.661C1393.6,867.488 1391,866.228 1390.18,863.851C1389.35,861.473 1390.61,858.872 1392.99,858.046C1405.35,853.751 1410.3,853.521 1417.2,853.07ZM1515.5,1395.72C1511.72,1428.83 1514.65,1429.5 1508.95,1463C1509.01,1463.7 1509.58,1469 1514.56,1471.1C1518.19,1472.64 1521.56,1474.23 1524.73,1475.85C1524.7,1475.77 1524.67,1475.69 1524.64,1475.61C1524.67,1475.69 1524.7,1475.77 1524.74,1475.85C1524.74,1475.85 1524.74,1475.85 1524.74,1475.85C1524.71,1475.77 1524.67,1475.69 1524.64,1475.61C1524.44,1475.1 1524.33,1474.54 1524.33,1473.96C1524.33,1471.81 1525.82,1470.01 1527.82,1475.21C1528.12,1475.96 1528.43,1476.87 1528.74,1477.96C1528.87,1478.03 1529,1478.1 1529.13,1478.17L1533.14,1472.32L1529.19,1478.2C1537.93,1482.98 1545.06,1487.82 1551.71,1491.89C1564.69,1439.46 1565.32,1438.12 1571.3,1405.89C1564.72,1405.21 1557.63,1404.55 1550,1403.97L1545.21,1433.37C1544.8,1435.85 1542.45,1437.54 1539.97,1437.13C1537.49,1436.73 1535.8,1434.38 1536.2,1431.9L1540.86,1403.34C1538.84,1403.22 1536.78,1403.1 1534.69,1402.99C1527.32,1402.59 1520.93,1400.13 1515.5,1395.72ZM1580.39,1406.9C1574.19,1440.35 1573.7,1440.98 1560.11,1495.94C1560.06,1496.14 1560,1496.34 1559.92,1496.53C1568.47,1500.78 1577.07,1502.79 1588.87,1500.35C1587.87,1499.22 1587.46,1497.62 1587.91,1496.07C1599.95,1454.6 1599.98,1454.79 1609.17,1412.61C1609.34,1411.82 1609.71,1411.12 1610.21,1410.56C1606.95,1410.18 1603.5,1409.74 1599.83,1409.28C1599.81,1409.42 1599.78,1409.57 1599.74,1409.71C1589.69,1449.84 1590.04,1449.67 1579.37,1489.73C1578.73,1492.16 1576.23,1493.61 1573.79,1492.96C1571.36,1492.31 1569.91,1489.81 1570.56,1487.38C1581.15,1447.61 1580.86,1447.56 1590.73,1408.14C1587.44,1407.73 1584,1407.31 1580.39,1406.9ZM1617.61,1411.37C1618.13,1412.3 1618.33,1413.43 1618.08,1414.55C1608.85,1456.9 1608.8,1456.85 1596.79,1498.2C1601.04,1496.79 1605.68,1494.87 1610.82,1492.39C1610.89,1492.36 1610.96,1492.33 1611.02,1492.3C1611.03,1492.24 1611.04,1492.18 1611.05,1492.13C1615.48,1470.23 1615.13,1461.26 1615.05,1455.02C1614.99,1450.19 1615.09,1446.77 1617.05,1441.25C1619.51,1434.29 1624.19,1428.58 1631.71,1412.19C1629.55,1412.19 1627.28,1412.11 1624.9,1411.96C1622.59,1411.82 1620.17,1411.62 1617.61,1411.37ZM1824.98,735.331C1825.01,736.115 1824.84,736.916 1824.44,737.657C1776.34,827.355 1759.27,816.124 1712.05,905.935C1711.74,906.541 1711.3,907.045 1710.79,907.435C1752.89,912.921 1802.88,922.307 1860.4,937.9C1863.03,925.619 1865.56,914.555 1867.57,904.034C1875.68,861.556 1874.94,828.183 1836.74,757.321C1832.69,749.807 1828.77,742.48 1824.98,735.331ZM1858.52,946.841C1690.93,901.336 1587.82,908.983 1558.45,911.759C1532.69,1039.81 1509.37,1163.9 1502.57,1254.78C1498.78,1305.46 1500.06,1345.64 1509.24,1370.07C1514.7,1384.59 1522.91,1393.22 1535.17,1393.88C1578.53,1396.19 1606.22,1401.69 1625.45,1402.86C1642.61,1403.9 1652.34,1401.37 1660.82,1388.01C1739.66,1263.77 1754.3,1209.5 1769.95,1189.18C1829.35,1112.12 1839.12,1114.16 1847.88,1017.57C1850.45,989.234 1854.49,966.447 1858.52,946.841ZM1560.33,902.424C1581.15,900.553 1629.9,897.432 1704.43,906.628C1703.36,905.257 1703.12,903.33 1703.98,901.691C1733.78,845.01 1751.57,828.558 1772.73,801.604C1718.1,815.914 1706.02,815.403 1643.13,815.063C1599.72,814.829 1587.98,823.696 1577.17,831.058C1576.4,831.581 1575.53,831.838 1574.66,831.848C1569.87,855.363 1565.07,878.948 1560.33,902.424ZM1521.95,1410.62C1522.22,1408.12 1524.48,1406.31 1526.98,1406.59C1529.48,1406.86 1531.29,1409.12 1531.01,1411.62C1528.08,1438.11 1528.33,1437.9 1523.35,1463.86C1522.87,1466.33 1520.48,1467.95 1518.01,1467.47C1515.54,1467 1513.91,1464.61 1514.39,1462.14C1519.3,1436.54 1519.05,1436.74 1521.95,1410.62ZM1554.66,1412.05C1555.21,1409.59 1557.65,1408.04 1560.1,1408.58C1562.56,1409.12 1564.12,1411.56 1563.57,1414.02C1560.6,1427.4 1561.08,1427.41 1547.78,1478.08C1547.14,1480.51 1544.65,1481.97 1542.21,1481.33C1539.78,1480.69 1538.32,1478.2 1538.96,1475.76C1552.19,1425.37 1551.71,1425.36 1554.66,1412.05ZM1538.53,1452.61C1537.93,1455.05 1535.45,1456.54 1533.01,1455.93C1530.57,1455.32 1529.08,1452.85 1529.68,1450.4L1530.59,1446.75C1531.2,1444.31 1533.67,1442.82 1536.12,1443.43C1538.56,1444.04 1540.05,1446.51 1539.44,1448.96L1538.53,1452.61ZM1647.75,1019.38C1648.08,1016.89 1650.38,1015.13 1652.87,1015.47C1655.37,1015.8 1657.12,1018.09 1656.79,1020.59C1640.46,1143.27 1650.91,1143.8 1623.77,1264.57C1623.22,1267.03 1620.77,1268.57 1618.32,1268.02C1615.86,1267.47 1614.32,1265.03 1614.87,1262.57C1641.92,1142.19 1631.48,1141.66 1647.75,1019.38ZM1331.07,281.281C1331.87,281.183 1333.09,282.609 1334.46,287.343L1334.57,278.849L1334.75,278.853L1334.64,287.974C1334.58,287.973 1334.52,287.971 1334.46,287.969C1331.94,287.969 1329.89,285.925 1329.89,283.408C1329.89,282.234 1330.34,281.162 1331.07,281.281ZM996.334,665.519C998.188,664.047 1000.33,662.498 1002.56,661.189C1010.31,656.645 1020.82,653.305 1032.57,657.157C1077.84,672.007 1077.96,666.917 1123.51,659.339C1103.97,546.176 1099.13,541.51 1096.24,522.234C1095.87,519.745 1097.58,517.421 1100.07,517.047C1102.56,516.673 1104.89,518.391 1105.26,520.88C1109.13,546.661 1116.48,546.306 1157.82,814.37C1191.6,819.079 1195.36,812.281 1226.7,827.981C1233.74,831.509 1244.12,832.951 1256.58,835.18C1267.2,837.08 1279.24,839.459 1292.06,843.753C1292.54,829.985 1293.59,789.484 1289.66,765.141C1281.31,713.293 1288.73,712.753 1279.16,661.034C1270.95,616.684 1273.64,524.962 1271.59,466.508C1271.08,451.746 1270.26,439.144 1268.86,430.05C1268.03,424.675 1267.1,420.648 1265.75,418.391C1260.47,409.564 1258.02,403.897 1257.44,399.045C1256.56,391.723 1259.85,385.961 1265.88,373.642C1266.99,371.382 1269.73,370.447 1271.99,371.554C1274.25,372.662 1275.18,375.397 1274.08,377.657C1271.4,383.108 1269.24,387.073 1267.85,390.489C1266.76,393.176 1266.19,395.414 1266.49,397.961C1266.97,401.941 1269.25,406.471 1273.58,413.71C1275.32,416.62 1276.8,421.732 1277.87,428.661C1279.31,438.022 1280.18,450.993 1280.71,466.189C1282.75,524.238 1279.98,615.331 1288.13,659.374C1297.72,711.198 1290.3,711.737 1298.67,763.69C1303.03,790.738 1301.44,837.305 1301.06,847.057C1308.83,850.163 1316.81,854.054 1324.87,859.025C1323.68,807.588 1324.55,734.086 1334.29,679.373C1346.4,611.265 1330.63,538.393 1321.97,381.749C1320.97,383.126 1319.24,383.888 1317.45,383.562C1294.78,379.418 1234.92,359.713 1220.96,351.875C1218.76,350.643 1217.98,347.861 1219.21,345.666C1220.45,343.471 1223.23,342.689 1225.42,343.921C1238.97,351.527 1297.09,370.568 1319.09,374.589C1320.12,374.777 1321.01,375.297 1321.66,376.019C1321.23,367.949 1320.82,359.659 1320.43,351.141C1320.31,348.626 1322.26,346.492 1324.78,346.377C1327.29,346.263 1329.42,348.211 1329.54,350.726C1337.69,529.869 1356.23,608.132 1343.27,680.971C1327.26,770.959 1335.35,912.621 1336.81,918.067C1364.31,1020.52 1342.94,1021.61 1339.44,1127.2C1339.25,1132.85 1343.98,1343.02 1344.37,1347.29C1345.19,1356.29 1347.4,1361.92 1350.66,1365.28C1354.13,1368.86 1358.7,1369.55 1363.08,1369.58C1368.73,1369.62 1374.24,1368.58 1378.1,1368.83C1380.61,1369 1382.52,1371.17 1382.36,1373.68C1382.19,1376.19 1380.02,1378.1 1377.51,1377.94C1373.78,1377.69 1368.48,1378.74 1363.02,1378.7C1356.29,1378.66 1349.45,1377.13 1344.11,1371.63C1339.81,1367.2 1336.37,1359.98 1335.29,1348.12C1335.23,1347.41 1335.04,1341.12 1334.78,1331.08C1334.37,1331.24 1333.93,1331.35 1333.47,1331.39L1315.38,1332.96C1312.88,1333.18 1310.66,1331.32 1310.45,1328.81C1310.23,1326.31 1312.09,1324.09 1314.6,1323.88L1332.68,1322.31C1333.34,1322.25 1333.98,1322.33 1334.57,1322.54C1333.14,1265.22 1330.17,1131.4 1330.32,1126.89C1333.78,1022.66 1355.15,1021.58 1328,920.431C1327.46,918.423 1326,898.193 1325.13,868.858C1324.16,868.947 1323.15,868.725 1322.26,868.156C1297.8,852.471 1273.98,847.558 1254.97,844.158C1241.46,841.741 1230.25,839.963 1222.61,836.136C1204.31,826.964 1196.06,826.019 1184.74,825.56C1178.05,825.288 1170.35,825.16 1159.26,823.76C1160.98,834.918 1162.75,846.526 1164.58,858.604C1180.1,961.084 1215.21,1035.19 1239,1110.38C1258.76,1172.83 1270.83,1236.01 1258.02,1316.37C1258.44,1316.29 1258.89,1316.28 1259.34,1316.33L1278.32,1318.55C1280.82,1318.84 1282.61,1321.11 1282.32,1323.61C1282.02,1326.11 1279.76,1327.9 1277.26,1327.61L1258.28,1325.39C1257.66,1325.32 1257.09,1325.13 1256.58,1324.84C1255.66,1330.04 1254.62,1335.3 1253.49,1340.64C1268.92,1342.71 1278.35,1345.88 1294.25,1347.78C1297.17,1348.13 1317.35,1350.55 1330.84,1352.33C1333.33,1352.66 1335.09,1354.95 1334.76,1357.44C1334.43,1359.94 1332.14,1361.7 1329.65,1361.37C1316.19,1359.6 1296.08,1357.19 1293.16,1356.84C1277.13,1354.92 1267.65,1351.72 1252.01,1349.65C1251.84,1349.63 1251.67,1349.59 1251.5,1349.55C1249.81,1356.86 1247.91,1364.32 1245.81,1371.92C1241.23,1388.45 1249.43,1400.84 1253.38,1411.89C1255.88,1418.89 1256.91,1425.46 1254.38,1432C1251.98,1438.2 1246.2,1444.62 1234.14,1451.19C1193.1,1473.54 1164.51,1483.15 1144.56,1485.52C1130.34,1487.2 1120.22,1485.26 1112.95,1481.66C1101.52,1475.99 1096.75,1466.14 1094.48,1457.93C1093.16,1453.17 1092.79,1449.07 1092.21,1447.16C1088.6,1435.18 1083.74,1437.74 1017.07,1310.06C985.309,1249.22 955.568,1217.58 934.13,1191.77C911.771,1164.84 898.207,1143.94 899.637,1104.85C905.114,955.087 911.384,955.989 949.633,823.739C987.615,692.41 1002.18,564.863 1027.05,475.826C1044.11,414.765 1066.42,371.655 1103.18,356.393C1148.05,337.768 1148.08,339.164 1193.08,319.861C1195.39,318.869 1198.08,319.941 1199.07,322.254C1200.06,324.568 1198.99,327.251 1196.67,328.244C1151.63,347.568 1151.59,346.171 1106.68,364.818C1071.96,379.231 1051.95,420.612 1035.84,478.281C1021.4,529.978 1010.43,594.656 996.334,665.519ZM1240.93,1354.53C1235.73,1355.74 1232.2,1356.37 1228.27,1356.85L1229.88,1366.35C1230.3,1368.83 1228.62,1371.19 1226.14,1371.61C1223.66,1372.03 1221.3,1370.35 1220.88,1367.87L1219.17,1357.73C1217.24,1357.89 1215.08,1358.07 1212.61,1358.29C1212.95,1358.82 1213.19,1359.42 1213.3,1360.08C1220.68,1406.37 1225.02,1405.44 1230.65,1441.43C1230.72,1441.86 1230.73,1442.27 1230.68,1442.68C1232.66,1441.57 1234.43,1440.49 1236.01,1439.42C1235.95,1439.19 1235.91,1438.96 1235.89,1438.72C1234.64,1426.15 1222.17,1391.34 1219.82,1378.84C1219.35,1376.36 1220.98,1373.98 1223.46,1373.51C1225.93,1373.05 1228.32,1374.68 1228.78,1377.15C1230.87,1388.24 1240.74,1416.66 1244.01,1432.1C1244.7,1431.14 1245.25,1430.17 1245.67,1429.19C1247,1426.14 1246.93,1423.09 1246.26,1419.94C1245.43,1416.09 1243.73,1412.12 1241.98,1407.89C1237.5,1397.06 1232.78,1384.77 1237.01,1369.49C1238.41,1364.43 1239.72,1359.45 1240.93,1354.53ZM1224.12,1446.22C1222.84,1445.58 1221.88,1444.36 1221.64,1442.84C1216.01,1406.87 1211.67,1407.79 1204.29,1361.52C1204.15,1360.65 1204.27,1359.79 1204.59,1359.04C1202.89,1359.2 1201.07,1359.38 1199.12,1359.58C1196.61,1359.84 1194.37,1358.02 1194.11,1355.51C1193.86,1353.01 1195.68,1350.77 1198.18,1350.51C1226.2,1347.63 1226.13,1348.86 1243.28,1344.57C1264.31,1251.36 1252.03,1181.79 1230.31,1113.13C1208.32,1043.67 1176.8,975.105 1159.73,884.5C1159.24,884.723 1158.7,884.863 1158.13,884.899C1145.35,885.706 1030.08,892.928 998.911,901.456C960.525,911.958 970.166,915.898 930.861,922.002C930.695,922.028 930.53,922.044 930.366,922.052C916.462,972.712 912.419,1004.91 908.752,1105.18C907.422,1141.56 920.343,1160.89 941.147,1185.94C962.871,1212.1 992.971,1244.19 1025.16,1305.84C1092.56,1434.91 1097.3,1432.42 1100.94,1444.53C1101.53,1446.48 1101.93,1450.65 1103.27,1455.5C1104.98,1461.68 1108.4,1469.22 1117,1473.49C1117.93,1473.94 1118.9,1474.36 1119.94,1474.74L1118.19,1462.93C1117.82,1460.44 1119.54,1458.12 1122.03,1457.75C1124.52,1457.38 1126.84,1459.1 1127.21,1461.59L1129.47,1476.79C1132.27,1477.06 1135.35,1477.1 1138.75,1476.9C1138.27,1476.28 1137.94,1475.54 1137.83,1474.72C1134.03,1447.34 1129.31,1448.77 1112.56,1398.92C1111.76,1396.54 1113.05,1393.95 1115.43,1393.14C1117.82,1392.34 1120.4,1393.63 1121.21,1396.02C1138.31,1446.91 1142.98,1445.5 1146.86,1473.46C1146.99,1474.38 1146.83,1475.28 1146.46,1476.06C1148.71,1475.72 1151.08,1475.28 1153.57,1474.74C1163.63,1472.57 1175.52,1468.74 1189.6,1462.81C1187.77,1455.41 1184.96,1443.74 1175.63,1414.52C1174.87,1412.12 1176.19,1409.55 1178.59,1408.78C1180.99,1408.02 1183.55,1409.34 1184.32,1411.74C1193.16,1439.43 1196.21,1451.53 1198.07,1459.09C1206.09,1455.46 1214.75,1451.19 1224.12,1446.22ZM933.063,912.412C958.871,908.156 961.098,904.828 975.802,899.247C963.532,890.657 957.129,884.881 944.42,873.766C940.085,888.333 936.331,900.926 933.063,912.412ZM947.21,864.384C947.637,864.567 948.043,864.819 948.412,865.141C964.034,878.776 969.988,884.403 986.55,895.558C989.464,894.649 992.751,893.685 996.504,892.658C1028.04,884.031 1144.62,876.612 1157.55,875.795C1157.75,875.783 1157.95,875.783 1158.14,875.796C1157.23,870.595 1156.37,865.321 1155.56,859.97C1153.53,846.594 1151.58,833.795 1149.69,821.544C1148.65,820.547 1148.09,819.07 1148.33,817.535C1148.42,816.995 1148.6,816.491 1148.85,816.038C1148.57,814.217 1148.29,812.409 1148.01,810.613C1147.22,811.142 1146.25,811.428 1145.23,811.373C1121,810.05 1109.63,806.29 1098.36,801.903C1087.65,797.734 1077.04,792.938 1054.41,789.22C1045.44,787.746 1045.11,784.603 965.147,802.088C962.98,810.13 960.732,818.194 958.395,826.273C954.313,840.389 950.597,852.976 947.21,864.384ZM967.78,792.18C1046.2,775.169 1046.76,778.719 1055.89,780.22C1079.46,784.091 1090.51,789.061 1101.67,793.403C1112.26,797.526 1122.96,801.022 1145.73,802.265C1146.08,802.284 1146.42,802.342 1146.74,802.436C1138.05,746.409 1130.92,702.699 1125.05,668.329C1077.26,676.272 1077.16,681.386 1029.72,665.824C1020.89,662.926 1013,665.637 1007.18,669.056C1000.59,672.923 996.368,677.751 995.762,678.188C995.109,678.661 994.372,678.934 993.624,679.021C986.221,715.544 977.899,753.564 967.78,792.18ZM1155.04,1361.26C1157.46,1360.55 1160,1361.93 1160.71,1364.34C1161.42,1366.76 1160.03,1369.29 1157.62,1370.01C1132.37,1377.44 1129.04,1381.43 1116.83,1386.66C1114.52,1387.66 1111.84,1386.58 1110.84,1384.27C1109.85,1381.96 1110.92,1379.27 1113.24,1378.28C1125.74,1372.92 1129.18,1368.87 1155.04,1361.26ZM997.009,973.153C996.933,970.637 998.913,968.533 1001.43,968.456C1003.95,968.379 1006.05,970.36 1006.13,972.876C1011.57,1151.5 1002.87,1155.65 1042.47,1218.87C1043.81,1221 1043.16,1223.82 1041.03,1225.15C1038.9,1226.49 1036.08,1225.84 1034.74,1223.71C994.389,1159.3 1002.56,1155.17 997.009,973.153ZM1178.78,1387.72C1179.49,1390.14 1178.1,1392.67 1175.68,1393.37C1173.26,1394.08 1170.73,1392.69 1170.03,1390.27L1167.69,1382.26C1166.99,1379.85 1168.38,1377.31 1170.8,1376.61C1173.21,1375.91 1175.75,1377.3 1176.45,1379.71L1178.78,1387.72ZM1133.5,1397.22C1132.87,1394.79 1134.33,1392.29 1136.76,1391.66C1139.2,1391.02 1141.69,1392.48 1142.33,1394.92C1150.42,1425.96 1153.26,1424.87 1161.6,1455.84C1162.25,1458.27 1160.81,1460.77 1158.38,1461.43C1155.95,1462.08 1153.44,1460.64 1152.79,1458.21C1144.44,1427.2 1141.61,1428.3 1133.5,1397.22ZM1082.71,1389.64C1084.67,1388.06 1087.54,1388.37 1089.12,1390.33C1090.7,1392.29 1090.39,1395.16 1088.43,1396.75L1083.13,1401.02C1081.18,1402.6 1078.3,1402.29 1076.72,1400.33C1075.14,1398.37 1075.45,1395.5 1077.41,1393.92L1082.71,1389.64ZM1146.98,1382.67C1146.02,1380.34 1147.12,1377.67 1149.44,1376.7C1151.77,1375.74 1154.44,1376.84 1155.41,1379.16C1169.59,1413.24 1177.29,1453.68 1178.55,1460.31C1179.02,1462.79 1177.4,1465.17 1174.92,1465.64C1172.45,1466.12 1170.06,1464.49 1169.59,1462.02C1168.36,1455.53 1160.85,1415.98 1146.98,1382.67ZM1093.66,1404.59C1092.62,1402.29 1093.65,1399.59 1095.94,1398.56C1098.24,1397.53 1100.94,1398.55 1101.97,1400.85C1111.88,1422.86 1112.09,1422.57 1121.76,1444.82C1122.76,1447.13 1121.7,1449.82 1119.39,1450.82C1117.09,1451.83 1114.4,1450.77 1113.39,1448.46C1103.75,1426.26 1103.54,1426.55 1093.66,1404.59ZM1187.53,1373.31C1186.78,1370.9 1188.12,1368.34 1190.52,1367.6C1192.92,1366.85 1195.48,1368.19 1196.23,1370.59C1207.43,1406.51 1206.83,1406.49 1214.03,1443.51C1214.52,1445.98 1212.9,1448.38 1210.43,1448.86C1207.96,1449.34 1205.56,1447.73 1205.08,1445.25C1197.98,1408.73 1198.57,1408.74 1187.53,1373.31ZM1175.04,1353.85C1175.85,1354.17 1176.96,1355.89 1178.18,1360.23L1180.11,1351.76L1180.22,1351.81L1178.25,1360.48C1177.52,1360.48 1176.82,1360.31 1176.21,1360C1177.13,1360.43 1177.82,1360.44 1178.05,1360.43L1178.01,1360.42C1177.37,1360.41 1176.76,1360.26 1176.21,1360C1176.21,1360 1176.21,1360 1176.21,1360C1176.2,1360 1176.18,1359.99 1176.17,1359.98C1176.17,1359.98 1176.16,1359.98 1176.16,1359.98C1174.63,1359.24 1173.57,1357.67 1173.57,1355.87C1173.57,1354.54 1174.14,1353.34 1175.04,1353.85ZM1355.9,1270.92C1355.89,1270.63 1355.9,1270.33 1355.95,1270.04C1356.53,1266.35 1358.25,1263.79 1360.47,1262.1C1363.6,1259.72 1367.96,1259.08 1372.29,1260.18C1378.19,1261.68 1383.82,1266.4 1385.28,1272.7C1386.24,1276.88 1385.53,1281.87 1381.47,1287.16C1377.95,1291.74 1371.15,1294.79 1364.87,1294.85C1360.2,1294.9 1355.9,1293.35 1353.1,1290.2C1350.22,1286.96 1348.6,1281.82 1350.73,1274.19C1351.36,1271.91 1353.62,1270.52 1355.9,1270.92ZM1359.68,1275.24C1359.7,1275.7 1359.64,1276.17 1359.51,1276.64C1358.53,1280.18 1358.57,1282.63 1359.91,1284.13C1361.04,1285.41 1362.88,1285.75 1364.77,1285.73C1368.32,1285.69 1372.25,1284.19 1374.24,1281.6C1376.19,1279.07 1376.85,1276.76 1376.39,1274.75C1375.7,1271.77 1372.85,1269.73 1370.05,1269.02C1368.58,1268.65 1367.05,1268.55 1365.99,1269.36C1365.42,1269.79 1365.11,1270.52 1364.96,1271.46C1364.57,1273.94 1362.23,1275.64 1359.75,1275.25C1359.72,1275.25 1359.7,1275.25 1359.68,1275.24ZM1363.25,1325.7C1363.66,1324.83 1364.34,1324.07 1365.26,1323.58C1372.53,1319.75 1379.57,1323.43 1383.49,1330.48C1388.68,1339.85 1387.59,1354.49 1374.13,1358.59C1370.92,1359.57 1366.83,1359.26 1362.99,1357.6C1357.49,1355.21 1352.62,1350.14 1351.77,1343.21C1351.21,1338.59 1352.41,1332.98 1357,1326.76C1358.47,1324.78 1361.24,1324.32 1363.25,1325.7ZM1364.82,1331.38C1364.69,1331.65 1364.53,1331.92 1364.34,1332.17C1361.54,1335.97 1360.48,1339.29 1360.83,1342.11C1361.25,1345.59 1363.85,1348.03 1366.62,1349.23C1368.3,1349.96 1370.07,1350.3 1371.48,1349.87C1378.51,1347.72 1378.23,1339.81 1375.51,1334.91C1374.14,1332.44 1372.06,1330.31 1369.52,1331.65C1367.97,1332.46 1366.17,1332.3 1364.82,1331.38ZM1355.96,855.008C1357.21,853.636 1359.23,853.116 1361.05,853.858C1366.7,856.159 1369.65,859.798 1370.92,863.613C1372.82,869.335 1370.77,875.831 1366.78,880.076C1363.73,883.325 1359.64,885.183 1355.61,884.878C1344.8,884.062 1339.88,874.433 1340.81,865.884C1341.46,859.855 1345.01,854.607 1350.81,852.968C1352.83,852.395 1354.92,853.286 1355.96,855.008ZM1355.42,860.427C1354.87,861.037 1354.14,861.504 1353.29,861.744C1351.11,862.362 1350.12,864.596 1349.87,866.868C1349.45,870.769 1351.37,875.411 1356.3,875.783C1357.72,875.891 1359.05,874.983 1360.13,873.833C1361.93,871.92 1363.12,869.064 1362.26,866.486C1361.69,864.766 1360.15,863.342 1357.61,862.304C1356.66,861.917 1355.91,861.245 1355.42,860.427ZM1360.25,663.672C1360.39,661.351 1362.28,659.471 1364.65,659.389C1371.01,659.169 1375.56,662.796 1377.7,667.73C1380.72,674.683 1378.68,684.326 1369.83,688.406C1365.8,690.265 1360.74,690.013 1356.58,688.042C1352.17,685.951 1348.9,682.027 1348.43,677.211C1348.07,673.428 1349.4,668.804 1354.24,664.022C1355.89,662.393 1358.47,662.281 1360.25,663.672ZM1362,667.541C1361.93,668.625 1361.48,669.691 1360.65,670.513C1358.42,672.709 1357.35,674.602 1357.51,676.339C1357.67,677.961 1359.01,679.096 1360.49,679.8C1362.23,680.623 1364.33,680.898 1366.01,680.123C1369.76,678.395 1370.61,674.307 1369.34,671.362C1368.61,669.698 1367.11,668.431 1364.96,668.505C1363.85,668.544 1362.81,668.178 1362,667.541ZM1347.99,464.791C1346.65,463.023 1346.76,460.485 1348.36,458.846C1352.34,454.762 1358.08,454.541 1363.05,457.112C1369.86,460.635 1374.61,469.302 1370.15,477.242C1366.16,484.369 1357.32,486.967 1350.62,483.699C1346.33,481.61 1342.64,477.136 1342.1,469.473C1341.92,466.962 1343.81,464.779 1346.32,464.6C1346.9,464.559 1347.47,464.629 1347.99,464.791ZM1350.28,466.387C1350.8,467.07 1351.13,467.906 1351.2,468.826C1351.44,472.292 1352.67,474.556 1354.61,475.5C1357.24,476.78 1360.63,475.571 1362.2,472.78C1363.92,469.704 1361.5,466.58 1358.86,465.215C1357.53,464.525 1355.96,464.118 1354.89,465.214C1353.65,466.481 1351.86,466.875 1350.28,466.387ZM1354.57,355.799C1354.58,355.786 1354.58,355.774 1354.59,355.761L1355.46,354.352L1356.73,353.203L1358.19,352.487L1359.6,352.183C1361.26,352.015 1363.56,352.527 1365.89,353.996C1372.77,358.328 1380.35,370.722 1368.98,380.232C1364.07,384.336 1358.02,384.544 1352.98,382.328C1348.03,380.153 1344.18,375.591 1343.35,370.393C1342.63,365.908 1343.97,360.785 1349.21,356.246C1350.75,354.916 1352.92,354.795 1354.57,355.799ZM1356.37,361.523C1356.11,362.127 1355.71,362.683 1355.18,363.142C1352.97,365.057 1352.05,367.058 1352.35,368.95C1352.71,371.191 1354.52,373.04 1356.65,373.978C1358.69,374.873 1361.14,374.893 1363.13,373.235C1364.73,371.898 1365.52,370.5 1365.59,369.07C1365.69,366.629 1364.1,364.381 1362.47,362.846C1362.03,362.427 1361.36,361.987 1360.85,361.677C1359.65,362.294 1358.2,362.381 1356.88,361.789C1356.7,361.71 1356.53,361.621 1356.37,361.523ZM1309.18,447.545C1313.92,464.247 1312.56,497.06 1311.15,530.115C1310.11,554.859 1309.03,579.744 1310.95,597.594C1311.1,597.782 1311.25,597.983 1311.4,598.196C1314.2,602.121 1316.27,610.35 1315.7,615.38C1315.49,617.324 1314.89,618.911 1314.11,620.026L1313.82,620.329C1313.7,626.27 1314.34,638.485 1319.72,667.854C1322.68,684.019 1322.35,697.211 1321.4,706.067C1322.67,707.466 1323.4,708.739 1323.81,709.834L1324.29,712.143L1324.01,714.527L1322.89,716.724L1321.81,717.898C1321.48,718.201 1321.11,718.483 1320.71,718.74C1319.35,728.602 1318.23,739.877 1318.04,741.782C1317.79,744.287 1315.55,746.118 1313.05,745.869C1310.54,745.62 1308.71,743.385 1308.96,740.88C1309.14,739.103 1310.11,729.32 1311.34,719.971C1310.43,719.278 1309.77,718.241 1309.59,717.016C1309.43,716.023 1309.62,715.056 1310.05,714.228C1309.81,712.205 1309.64,709.713 1309.94,708.063L1310.52,706.204L1311.48,704.708L1312.44,703.938C1313.22,695.757 1313.39,683.902 1310.75,669.499C1304.91,637.653 1304.51,625.136 1304.72,619.212C1304.66,619.222 1304.59,619.23 1304.53,619.237C1302.03,619.505 1299.78,617.69 1299.51,615.188C1299.44,614.595 1298.84,608.895 1298.99,604.291C1299.07,601.777 1299.43,599.536 1300,598.158L1301.08,596.332L1301.71,595.788C1300.15,577.639 1301.03,553.623 1302.04,529.729C1303.41,497.451 1305.05,465.406 1300.25,449.52C1299.88,448.295 1300.05,447.034 1300.63,445.996C1300.51,445.731 1300.42,445.451 1300.36,445.158C1299.82,442.699 1301.38,440.267 1303.84,439.73C1304.59,439.567 1305.39,439.177 1305.79,438.967C1305.54,438.65 1305.07,438.15 1304.71,438.535C1302.98,440.369 1300.09,440.46 1298.26,438.737C1296.42,437.014 1296.33,434.125 1298.06,432.29C1302.55,427.505 1308.37,428.654 1311.94,432.113C1314.35,434.449 1315.54,437.835 1314.87,440.964C1314.36,443.323 1312.79,445.906 1309.18,447.545ZM1409.94,687.105C1409.93,686.85 1409.94,686.591 1409.97,686.329C1413.59,656.788 1415.21,656.986 1413.35,605.149C1413.23,602.075 1413.16,599.243 1413.11,596.614L1412.93,596.476L1412.02,595.448C1411.45,594.664 1410.88,593.564 1410.48,591.982C1409.35,587.476 1409.44,576.472 1413.62,551.021C1413.8,549.902 1414.38,548.946 1415.18,548.27C1415.34,542.532 1415.35,535.69 1415.06,526.828C1413.45,476.467 1415.15,455.324 1415.06,447.322C1413.99,446.915 1413.07,446.109 1412.55,444.993C1411.9,443.595 1412.01,442.033 1412.73,440.788C1412.69,438.61 1414.23,436.653 1416.44,436.233L1418.66,435.81C1421.13,435.34 1423.53,436.966 1424,439.438C1424.18,440.416 1424.04,441.38 1423.65,442.218C1423.82,442.806 1423.97,443.524 1424.05,444.398C1424.62,450.477 1422.39,470.623 1424.18,526.536C1424.81,546.317 1424.01,556.026 1423.23,565.87C1424.48,566.208 1425.57,567.068 1426.17,568.324C1429.77,575.955 1428.05,586.025 1425.35,591.742C1424.43,593.666 1423.32,595.131 1422.23,596.155C1422.27,598.82 1422.35,601.695 1422.46,604.82C1424.36,657.576 1422.71,657.374 1419.03,687.438C1418.93,688.224 1418.64,688.938 1418.21,689.539C1418.32,689.821 1418.39,690.113 1418.45,690.41C1418.5,690.474 1418.55,690.539 1418.6,690.606C1423.79,697.685 1423.23,702.527 1421.69,705.381C1420.81,707.011 1419.45,708.222 1417.94,709.057L1417.34,715.511C1417.1,718.017 1414.88,719.862 1412.37,719.627C1409.87,719.392 1408.02,717.167 1408.26,714.661L1408.73,709.614L1408.57,709.543L1407.49,708.67C1405.8,706.894 1404.75,704.063 1404.58,700.877C1404.36,696.938 1405.45,692.519 1407.03,689.988C1407.31,689.534 1407.61,689.126 1407.91,688.766L1409.14,687.603L1409.94,687.105ZM1413.7,700.696C1413.7,700.788 1413.71,700.88 1413.71,700.97C1413.74,700.891 1413.73,700.801 1413.7,700.696ZM1266.02,298.571C1266.94,297.168 1268.62,296.334 1270.4,296.564C1275.73,297.249 1278.11,299.826 1280.08,303.733C1282.78,309.069 1284.49,318.249 1305.47,325.415C1307.85,326.229 1309.13,328.824 1308.31,331.206C1307.5,333.588 1304.9,334.861 1302.52,334.047C1284.76,327.98 1278.42,320.587 1275.09,314.483C1273.74,315.978 1271.51,316.447 1269.63,315.488C1263.96,312.594 1255.28,302.674 1253.58,288.775C1251.61,272.57 1265.66,259.544 1267.69,257.721C1269.56,256.038 1272.45,256.193 1274.13,258.065C1275.81,259.938 1275.66,262.824 1273.79,264.506C1272.26,265.88 1261.15,275.457 1262.64,287.671C1263.14,291.803 1264.41,295.5 1266.02,298.571ZM1412.89,289.396C1412.31,289.399 1408.39,289.381 1397.1,288.503C1394.59,288.307 1392.71,286.112 1392.9,283.602C1393.1,281.093 1395.29,279.214 1397.8,279.409C1408.52,280.241 1411.69,280.217 1413.06,280.267L1415.54,280.669C1417.93,281.447 1419.25,284.022 1418.47,286.415C1417.71,288.753 1415.24,290.059 1412.89,289.396ZM1388.49,324.985C1388.96,322.926 1390.82,321.403 1393.01,321.44C1395.53,321.482 1397.54,323.559 1397.5,326.076C1397.11,349.449 1396.07,367.355 1394.82,382.327C1395.82,380.819 1397.66,379.985 1399.54,380.364C1410.93,382.664 1428.42,388.788 1450.45,387.53C1452.97,387.386 1455.12,389.31 1455.27,391.823C1455.38,393.702 1454.33,395.382 1452.74,396.17C1453.35,396.941 1453.72,397.914 1453.72,398.973L1453.91,436.568C1453.93,439.085 1451.89,441.139 1449.38,441.151C1446.86,441.164 1444.81,439.131 1444.79,436.614L1444.6,399.019C1444.6,398.221 1444.8,397.47 1445.15,396.815C1424.85,396.909 1408.62,391.503 1397.73,389.305C1396.21,388.998 1395.02,387.969 1394.45,386.648C1390.31,432.957 1384.36,451.57 1390.67,526.355C1398.59,620.348 1392.78,688.987 1388.14,748.912C1383.55,808.18 1380.09,858.83 1392.61,917.32C1414.18,1018.08 1412.75,1018.02 1405.61,1363.05C1405.59,1364.42 1404.95,1365.64 1403.98,1366.45C1403.66,1367.76 1402.77,1368.92 1401.45,1369.52L1396.32,1371.87C1394.03,1372.92 1391.32,1371.91 1390.27,1369.62C1389.23,1367.34 1390.23,1364.63 1392.52,1363.58L1396.52,1361.75C1403.6,1019.46 1405.14,1019.4 1383.69,919.23C1370.97,859.831 1374.39,808.397 1379.04,748.209C1383.65,688.679 1389.44,620.493 1381.58,527.121C1373.22,427.929 1386.25,427.104 1388.29,330.737C1387.74,331.366 1387.01,331.852 1386.15,332.107C1361.52,339.435 1362.14,339.518 1336.12,342.459C1333.62,342.742 1331.36,340.94 1331.08,338.439C1330.8,335.938 1332.6,333.678 1335.1,333.395C1360.3,330.547 1359.69,330.462 1383.55,323.365C1385.42,322.807 1387.38,323.512 1388.49,324.985ZM1422.08,337.939C1421.71,338.132 1417.99,339.744 1402.32,337.317C1399.83,336.932 1398.13,334.599 1398.51,332.112C1398.9,329.624 1401.23,327.918 1403.72,328.303C1419.15,330.695 1419.16,329.121 1420.68,328.929C1423.18,328.614 1425.46,330.385 1425.78,332.883C1426.08,335.294 1424.44,337.505 1422.08,337.939ZM511.685,-106.233C510.274,-104.149 507.436,-103.603 505.351,-105.014C503.267,-106.425 502.721,-109.263 504.133,-111.348L504.98,-112.599C506.391,-114.683 509.229,-115.229 511.313,-113.818C513.398,-112.406 513.944,-109.568 512.532,-107.484L511.685,-106.233ZM1369.89,1063.59C1367.49,1062.85 1366.14,1060.29 1366.88,1057.89C1367.63,1055.48 1370.19,1054.14 1372.59,1054.88C1390.16,1060.32 1389.26,1088.89 1367.31,1091.63C1363.33,1092.12 1359.12,1090.8 1355.66,1088.06C1350.8,1084.22 1347.47,1077.66 1348.49,1070.45C1349.17,1065.61 1351.82,1060.37 1357.68,1055.59C1359.63,1054 1362.5,1054.3 1364.09,1056.25C1365.68,1058.2 1365.39,1061.08 1363.43,1062.67C1360.03,1065.44 1358.18,1068.35 1357.61,1071.19C1356.86,1074.98 1358.5,1078.47 1360.95,1080.61C1362.49,1081.94 1364.36,1082.8 1366.18,1082.58C1377.62,1081.15 1379.05,1066.43 1369.89,1063.59ZM1378.41,276.356C1380.92,276.365 1382.96,278.416 1382.95,280.933C1382.94,283.45 1380.89,285.486 1378.38,285.477C1353.59,285.39 1350.33,285.503 1347.89,285.59C1345.38,285.679 1343.26,283.709 1343.17,281.194C1343.08,278.678 1345.05,276.563 1347.57,276.474C1350.03,276.387 1353.33,276.268 1378.41,276.356ZM1449.88,1326.25C1452.39,1326.17 1454.5,1328.16 1454.57,1330.67C1454.64,1333.19 1452.66,1335.29 1450.14,1335.36C1432.81,1335.86 1433.05,1336.92 1415.73,1335.13C1413.23,1334.88 1411.41,1332.63 1411.66,1330.13C1411.92,1327.63 1414.16,1325.8 1416.67,1326.06C1433.38,1327.78 1433.15,1326.72 1449.88,1326.25ZM1298.33,1321.51C1300.81,1321.9 1302.51,1324.24 1302.12,1326.72C1301.73,1329.21 1299.4,1330.91 1296.91,1330.52L1295.6,1330.32C1293.11,1329.93 1291.41,1327.59 1291.8,1325.1C1292.19,1322.62 1294.53,1320.91 1297.01,1321.31L1298.33,1321.51ZM1473.24,380.638C1471.74,382.657 1468.88,383.078 1466.86,381.575C1464.84,380.073 1464.42,377.214 1465.92,375.194C1481.52,354.225 1481.35,354.426 1495.36,332.583C1496.72,330.464 1499.54,329.847 1501.66,331.206C1503.78,332.565 1504.39,335.389 1503.04,337.508C1488.85,359.617 1489.03,359.413 1473.24,380.638ZM1516.87,313.086C1515.74,315.338 1513,316.253 1510.75,315.129C1508.5,314.005 1507.58,311.263 1508.7,309.011C1511.75,302.922 1513.29,298.693 1513.06,294.808C1512.9,292.151 1511.83,289.731 1510.07,286.945C1507.92,283.535 1504.79,279.725 1500.76,274.836C1465.88,232.547 1442.53,231.257 1412.87,225.716C1410.39,225.254 1408.76,222.87 1409.22,220.395C1409.69,217.921 1412.07,216.288 1414.54,216.75C1446.04,222.633 1470.77,224.13 1507.8,269.033C1517.05,280.258 1521.71,286.793 1522.16,294.26C1522.47,299.374 1520.87,305.069 1516.87,313.086ZM1382.2,215.346C1384.69,214.983 1387.01,216.711 1387.37,219.202C1387.74,221.693 1386.01,224.009 1383.52,224.372C1313.12,234.625 1312.84,231.383 1268.76,240.388C1266.3,240.891 1263.89,239.298 1263.38,236.832C1262.88,234.366 1264.47,231.955 1266.94,231.451C1311.22,222.406 1311.49,225.645 1382.2,215.346ZM1230.18,251.473C1231.95,249.677 1234.84,249.651 1236.63,251.415C1238.43,253.179 1238.45,256.069 1236.69,257.865C1230.73,263.934 1205.91,288.915 1215.13,325.537C1215.75,327.978 1214.27,330.459 1211.82,331.073C1209.38,331.688 1206.9,330.206 1206.29,327.765C1195.9,286.542 1223.47,258.305 1230.18,251.473ZM1445.25,322.753C1444.71,325.21 1442.27,326.759 1439.81,326.21C1437.35,325.662 1435.8,323.222 1436.35,320.766C1437.36,316.25 1439.39,309.725 1439.85,302.588C1440.26,296.169 1439.38,289.182 1434.75,282.939C1428.1,273.969 1414.27,266.807 1387.81,263.839C1385.31,263.558 1383.51,261.3 1383.79,258.798C1384.07,256.297 1386.33,254.494 1388.83,254.774C1419.06,258.166 1434.48,267.259 1442.08,277.508C1448.13,285.679 1449.49,294.771 1448.95,303.173C1448.46,310.856 1446.34,317.892 1445.25,322.753ZM1355.59,253.435C1358.11,253.377 1360.2,255.372 1360.26,257.888C1360.32,260.405 1358.32,262.495 1355.81,262.554C1312.76,263.558 1287.85,282.996 1283.01,286.781C1281.03,288.333 1278.16,287.984 1276.61,286.002C1275.06,284.021 1275.41,281.152 1277.39,279.6C1282.58,275.532 1309.32,254.514 1355.59,253.435ZM1193.61,400.21C1193.89,397.708 1196.15,395.908 1198.65,396.191C1201.15,396.474 1202.95,398.734 1202.67,401.235C1198.2,440.774 1202.12,470.564 1205.13,499.343C1208.22,528.874 1210.37,557.364 1202.19,593.78C1189.97,648.12 1193.18,648.407 1189.01,703.804C1188.83,706.314 1186.63,708.198 1184.12,708.01C1181.61,707.821 1179.73,705.63 1179.92,703.12C1184.13,647.059 1180.93,646.772 1193.29,591.78C1201.21,556.502 1199.05,528.9 1196.06,500.293C1192.98,470.935 1189.05,440.544 1193.61,400.21ZM1496.53,414.922C1495.33,412.711 1496.15,409.939 1498.36,408.736C1500.57,407.533 1503.34,408.351 1504.55,410.562C1508.78,418.347 1508.88,418.363 1559.54,561.958C1571.22,595.069 1566.63,596.627 1582.2,628.095C1583.32,630.351 1582.4,633.089 1580.14,634.206C1577.89,635.322 1575.15,634.398 1574.03,632.142C1558.21,600.18 1562.8,598.623 1550.93,564.992C1500.74,422.687 1500.73,422.637 1496.53,414.922Z"/>
            </g>
        </g>
    </g>
</svg>
