<?xml version="1.0" encoding="UTF-8" standalone="no"?>
<!DOCTYPE svg PUBLIC "-//W3C//DTD SVG 1.1//EN" "http://www.w3.org/Graphics/SVG/1.1/DTD/svg11.dtd">
<svg width="100%" height="100%" viewBox="0 0 534 529" version="1.1" xmlns="http://www.w3.org/2000/svg" xmlns:xlink="http://www.w3.org/1999/xlink" xml:space="preserve" xmlns:serif="http://www.serif.com/" style="fill-rule:evenodd;clip-rule:evenodd;stroke-linejoin:round;stroke-miterlimit:2;">
    <g transform="matrix(1,0,0,1,-1692.77,-280.401)">
        <g id="Ebene1">
        </g>
        <g id="Ebene3">
            <path d="M2201.71,341.906C2213.89,368.56 2212.77,400.936 2210.73,436.218C2208.72,470.959 2205.86,508.555 2214.55,546.216C2234.82,634.068 2223.99,652.242 2219.41,660.13C2176.75,733.595 2150.44,770.441 2132.9,788.983C2114.72,808.206 2105.55,808.318 2097.65,808.521C2045.64,809.854 2019.84,804.314 1994.11,799.773C1968.62,795.275 1943.2,791.776 1891.97,797.076C1885.11,797.785 1848.6,802.572 1813.87,795.179C1790.35,790.174 1767.69,779.571 1755.22,758.651C1748.58,747.494 1746.36,726.758 1745.23,702.686C1743.57,667.367 1744.07,624.745 1734.83,595.562C1714.42,531.117 1704.83,500.569 1711.64,472.098C1716.19,453.055 1728.07,434.891 1749.14,408.198C1763.41,390.13 1770.88,371.429 1777.88,354.562C1786.3,334.296 1794.13,316.655 1811.48,305.506C1828.74,294.416 1855.55,289.693 1902.18,295.636C2006.42,308.922 2006.16,307.967 2110.89,305.785C2149.43,304.982 2170.1,308.992 2182.99,317.663C2191.75,323.559 2197.01,331.604 2201.71,341.906ZM2198.04,343.585C2193.67,334.02 2188.86,326.49 2180.73,321.016C2168.27,312.632 2148.23,309.049 2110.98,309.825C2005.94,312.013 2006.21,312.968 1901.67,299.645C1856.44,293.88 1830.41,298.149 1813.67,308.906C1797.02,319.604 1789.69,336.664 1781.61,356.112C1774.48,373.285 1766.84,392.306 1752.32,410.702C1731.74,436.771 1720.02,454.441 1715.57,473.037C1708.88,501.024 1718.62,530.993 1738.68,594.342C1748.01,623.808 1747.59,666.835 1749.27,702.496C1750.36,725.744 1752.28,745.808 1758.69,756.583C1770.58,776.526 1792.29,786.455 1814.71,791.227C1848.88,798.5 1884.81,793.754 1891.56,793.056C1943.34,787.699 1969.04,791.246 1994.81,795.794C2020.34,800.299 2045.94,805.804 2097.54,804.481C2104.84,804.294 2113.18,803.957 2129.97,786.207C2147.4,767.776 2173.51,731.124 2215.91,658.101C2220.38,650.415 2230.37,632.731 2210.61,547.125C2201.83,509.072 2204.66,471.087 2206.7,435.985C2208.69,401.424 2209.96,369.694 2198.04,343.585Z"/>
            <g transform="matrix(1,0,0,1,-16.6816,-12.6387)">
                <path d="M2201.71,341.906C2213.89,368.56 2212.77,400.936 2210.73,436.218C2208.72,470.959 2205.86,508.555 2214.55,546.216C2234.82,634.068 2223.99,652.242 2219.41,660.13C2176.75,733.595 2150.44,770.441 2132.9,788.983C2114.72,808.206 2105.55,808.318 2097.65,808.521C2045.64,809.854 2019.84,804.314 1994.11,799.773C1968.62,795.275 1943.2,791.776 1891.97,797.076C1885.11,797.785 1848.6,802.572 1813.87,795.179C1790.35,790.174 1767.69,779.571 1755.22,758.651C1748.58,747.494 1746.36,726.758 1745.23,702.686C1743.57,667.367 1744.07,624.745 1734.83,595.562C1714.42,531.117 1704.83,500.569 1711.64,472.098C1716.19,453.055 1728.07,434.891 1749.14,408.198C1763.41,390.13 1770.88,371.429 1777.88,354.562C1786.3,334.296 1794.13,316.655 1811.48,305.506C1828.74,294.416 1855.55,289.693 1902.18,295.636C2006.42,308.922 2006.16,307.967 2110.89,305.785C2149.43,304.982 2170.1,308.992 2182.99,317.663C2191.75,323.559 2197.01,331.604 2201.71,341.906ZM2198.04,343.585C2193.67,334.02 2188.86,326.49 2180.73,321.016C2168.27,312.632 2148.23,309.049 2110.98,309.825C2005.94,312.013 2006.21,312.968 1901.67,299.645C1856.44,293.88 1830.41,298.149 1813.67,308.906C1797.02,319.604 1789.69,336.664 1781.61,356.112C1774.48,373.285 1766.84,392.306 1752.32,410.702C1731.74,436.771 1720.02,454.441 1715.57,473.037C1708.88,501.024 1718.62,530.993 1738.68,594.342C1748.01,623.808 1747.59,666.835 1749.27,702.496C1750.36,725.744 1752.28,745.808 1758.69,756.583C1770.58,776.526 1792.29,786.455 1814.71,791.227C1848.88,798.5 1884.81,793.754 1891.56,793.056C1943.34,787.699 1969.04,791.246 1994.81,795.794C2020.34,800.299 2045.94,805.804 2097.54,804.481C2104.84,804.294 2113.18,803.957 2129.97,786.207C2147.4,767.776 2173.51,731.124 2215.91,658.101C2220.38,650.415 2230.37,632.731 2210.61,547.125C2201.83,509.072 2204.66,471.087 2206.7,435.985C2208.69,401.424 2209.96,369.694 2198.04,343.585Z"/>
            </g>
        </g>
        <g id="Ebene4">
        </g>
        <g id="Ebene2">
        </g>
    </g>
</svg>
