<?xml version="1.0" encoding="UTF-8" standalone="no"?>
<!DOCTYPE svg PUBLIC "-//W3C//DTD SVG 1.1//EN" "http://www.w3.org/Graphics/SVG/1.1/DTD/svg11.dtd">
<svg width="100%" height="100%" viewBox="0 0 651 559" version="1.1" xmlns="http://www.w3.org/2000/svg" xmlns:xlink="http://www.w3.org/1999/xlink" xml:space="preserve" xmlns:serif="http://www.serif.com/" style="fill-rule:evenodd;clip-rule:evenodd;stroke-linejoin:round;stroke-miterlimit:2;">
    <g transform="matrix(1,0,0,1,-996.48,-899.645)">
        <g id="Ebene1">
        </g>
        <g id="Ebene3">
        </g>
        <g id="Ebene4">
            <path d="M1457.75,991.083C1471.53,996.265 1479.8,1002.4 1484.86,1009.47C1492.41,1020.01 1492.82,1032.75 1493.24,1048.07C1493.91,1072.51 1494.95,1103.76 1529.27,1143.27C1552.64,1170.19 1595.48,1208.58 1619.73,1249.65C1634.55,1274.73 1642.43,1300.83 1635.23,1325.96C1630.42,1342.72 1618.91,1359.11 1598.11,1374.46C1578.16,1389.18 1568.06,1408.23 1558.18,1424.27C1550.47,1436.79 1542.84,1447.5 1531.25,1453.33C1519.64,1459.17 1504,1460.2 1480.12,1452.93C1389.75,1425.42 1344.95,1436.99 1306.79,1445.37C1280.86,1451.07 1257.94,1455.27 1226.27,1445.32C1181.77,1431.33 1163.52,1424.96 1150.73,1413.58C1142.18,1405.96 1136.04,1396.1 1126.24,1380.12C1106.5,1347.94 1075.67,1335.93 1049.26,1324.26C1021.78,1312.12 999.046,1300.23 996.61,1268.55C995.714,1256.91 999.502,1247.6 1005.82,1239.05C1011.92,1230.8 1020.41,1223.27 1029.18,1214.94C1041.99,1202.78 1055.43,1188.88 1062.4,1168.14C1069.38,1147.34 1069.83,1119.72 1056.88,1080.21C1052.47,1066.78 1048.15,1057.07 1045.97,1049.17C1044.42,1043.54 1043.95,1038.76 1045.12,1034.25C1047.02,1026.91 1053.35,1020.12 1067.42,1011.46C1069.88,1009.94 1071.36,1007.18 1072.5,1003.8C1074.45,998.037 1075.32,990.562 1076.97,983.41C1079.94,970.502 1085.41,958.725 1102.27,957.903C1117.66,957.152 1125.59,956.732 1132.29,953.637C1138.98,950.542 1144.39,944.791 1154.85,933.639C1164.61,923.229 1174.04,917.645 1183.48,915.52C1197.58,912.346 1211.79,916.907 1227.4,925.157C1264.99,945.022 1311.09,986.502 1385.91,984.875C1422.39,984.082 1421.3,983.765 1457.44,990.993C1457.55,991.014 1457.65,991.045 1457.75,991.083ZM1456.48,994.923C1420.95,987.817 1421.97,988.133 1386,988.915C1310.29,990.561 1263.54,948.831 1225.51,928.729C1210.87,920.992 1197.59,916.485 1184.36,919.462C1175.59,921.439 1166.87,926.721 1157.8,936.403C1146.81,948.123 1141.02,954.052 1133.98,957.304C1126.95,960.556 1118.63,961.15 1102.47,961.939C1087.89,962.65 1083.48,973.153 1080.9,984.318C1079.22,991.608 1078.32,999.221 1076.33,1005.1C1074.85,1009.48 1072.73,1012.93 1069.54,1014.9C1056.78,1022.75 1050.75,1028.61 1049.03,1035.26C1048.02,1039.14 1048.53,1043.25 1049.87,1048.1C1052.03,1055.95 1056.34,1065.6 1060.72,1078.95C1074.05,1119.6 1073.41,1148.03 1066.23,1169.42C1059.02,1190.87 1045.21,1205.3 1031.97,1217.87C1023.38,1226.03 1015.04,1233.38 1009.07,1241.45C1003.33,1249.22 999.825,1257.66 1000.64,1268.24C1002.95,1298.22 1024.88,1309.08 1050.89,1320.57C1077.97,1332.53 1109.44,1345.02 1129.69,1378.01C1139.21,1393.53 1145.11,1403.16 1153.42,1410.56C1165.94,1421.7 1183.89,1427.76 1227.48,1441.46C1258.34,1451.16 1280.67,1446.97 1305.92,1441.43C1344.53,1432.94 1389.86,1421.23 1481.3,1449.06C1503.78,1455.91 1518.51,1455.21 1529.44,1449.72C1540.38,1444.21 1547.46,1433.98 1554.74,1422.15C1564.86,1405.73 1575.29,1386.29 1595.71,1371.21C1615.63,1356.51 1626.75,1340.9 1631.34,1324.85C1638.25,1300.74 1630.46,1275.76 1616.25,1251.7C1592.12,1210.85 1549.47,1172.7 1526.22,1145.92C1490.99,1105.35 1489.89,1073.28 1489.2,1048.18C1488.8,1033.77 1488.67,1021.74 1481.58,1011.83C1476.9,1005.29 1469.18,999.721 1456.48,994.923Z"/>
            <g transform="matrix(1,0,0,1,9.22681,-14.8559)">
                <path d="M1457.75,991.083C1471.53,996.265 1479.8,1002.4 1484.86,1009.47C1492.41,1020.01 1492.82,1032.75 1493.24,1048.07C1493.91,1072.51 1494.95,1103.76 1529.27,1143.27C1552.64,1170.19 1595.48,1208.58 1619.73,1249.65C1634.55,1274.73 1642.43,1300.83 1635.23,1325.96C1630.42,1342.72 1618.91,1359.11 1598.11,1374.46C1578.16,1389.18 1568.06,1408.23 1558.18,1424.27C1550.47,1436.79 1542.84,1447.5 1531.25,1453.33C1519.64,1459.17 1504,1460.2 1480.12,1452.93C1389.75,1425.42 1344.95,1436.99 1306.79,1445.37C1280.86,1451.07 1257.94,1455.27 1226.27,1445.32C1181.77,1431.33 1163.52,1424.96 1150.73,1413.58C1142.18,1405.96 1136.04,1396.1 1126.24,1380.12C1106.5,1347.94 1075.67,1335.93 1049.26,1324.26C1021.78,1312.12 999.046,1300.23 996.61,1268.55C995.714,1256.91 999.502,1247.6 1005.82,1239.05C1011.92,1230.8 1020.41,1223.27 1029.18,1214.94C1041.99,1202.78 1055.43,1188.88 1062.4,1168.14C1069.38,1147.34 1069.83,1119.72 1056.88,1080.21C1052.47,1066.78 1048.15,1057.07 1045.97,1049.17C1044.42,1043.54 1043.95,1038.76 1045.12,1034.25C1047.02,1026.91 1053.35,1020.12 1067.42,1011.46C1069.88,1009.94 1071.36,1007.18 1072.5,1003.8C1074.45,998.037 1075.32,990.562 1076.97,983.41C1079.94,970.502 1085.41,958.725 1102.27,957.903C1117.66,957.152 1125.59,956.732 1132.29,953.637C1138.98,950.542 1144.39,944.791 1154.85,933.639C1164.61,923.229 1174.04,917.645 1183.48,915.52C1197.58,912.346 1211.79,916.907 1227.4,925.157C1264.99,945.022 1311.09,986.502 1385.91,984.875C1422.39,984.082 1421.3,983.765 1457.44,990.993C1457.55,991.014 1457.65,991.045 1457.75,991.083ZM1456.48,994.923C1420.95,987.817 1421.97,988.133 1386,988.915C1310.29,990.561 1263.54,948.831 1225.51,928.729C1210.87,920.992 1197.59,916.485 1184.36,919.462C1175.59,921.439 1166.87,926.721 1157.8,936.403C1146.81,948.123 1141.02,954.052 1133.98,957.304C1126.95,960.556 1118.63,961.15 1102.47,961.939C1087.89,962.65 1083.48,973.153 1080.9,984.318C1079.22,991.608 1078.32,999.221 1076.33,1005.1C1074.85,1009.48 1072.73,1012.93 1069.54,1014.9C1056.78,1022.75 1050.75,1028.61 1049.03,1035.26C1048.02,1039.14 1048.53,1043.25 1049.87,1048.1C1052.03,1055.95 1056.34,1065.6 1060.72,1078.95C1074.05,1119.6 1073.41,1148.03 1066.23,1169.42C1059.02,1190.87 1045.21,1205.3 1031.97,1217.87C1023.38,1226.03 1015.04,1233.38 1009.07,1241.45C1003.33,1249.22 999.825,1257.66 1000.64,1268.24C1002.95,1298.22 1024.88,1309.08 1050.89,1320.57C1077.97,1332.53 1109.44,1345.02 1129.69,1378.01C1139.21,1393.53 1145.11,1403.16 1153.42,1410.56C1165.94,1421.7 1183.89,1427.76 1227.48,1441.46C1258.34,1451.16 1280.67,1446.97 1305.92,1441.43C1344.53,1432.94 1389.86,1421.23 1481.3,1449.06C1503.78,1455.91 1518.51,1455.21 1529.44,1449.72C1540.38,1444.21 1547.46,1433.98 1554.74,1422.15C1564.86,1405.73 1575.29,1386.29 1595.71,1371.21C1615.63,1356.51 1626.75,1340.9 1631.34,1324.85C1638.25,1300.74 1630.46,1275.76 1616.25,1251.7C1592.12,1210.85 1549.47,1172.7 1526.22,1145.92C1490.99,1105.35 1489.89,1073.28 1489.2,1048.18C1488.8,1033.77 1488.67,1021.74 1481.58,1011.83C1476.9,1005.29 1469.18,999.721 1456.48,994.923Z"/>
            </g>
        </g>
        <g id="Ebene2">
        </g>
    </g>
</svg>
